<?xml version="1.0" encoding="utf-8"?>
<!-- Generator: Adobe Illustrator 26.3.1, SVG Export Plug-In . SVG Version: 6.00 Build 0)  -->
<svg version="1.1" xmlns="http://www.w3.org/2000/svg" xmlns:xlink="http://www.w3.org/1999/xlink" x="0px" y="0px"
	 viewBox="0 0 1920 1080" style="enable-background:new 0 0 1920 1080;" xml:space="preserve">
<style type="text/css">
	.st0{fill:#FF8500;}
	.st1{fill:#CC070D;}
	.st2{fill:#1969FF;}
	.st3{fill:#84898D;}
	.st4{fill:#5A61FF;}
	.st5{fill:#211638;}
	.st6{fill:#D2D7FE;}
	.st7{fill:#D2FBF9;}
	.st8{fill:#FF8DFF;}
	.st9{fill:#FFEBD2;}
	.st10{fill:#51CCCA;}
	.st11{fill:#FFB553;}
	.st12{fill:#FFDCFF;}
	.st13{fill:#D62DFF;}
	.st14{fill:#019490;}
	.st15{fill:#FF9002;}
	.st16{fill:#151F31;}
	.st17{display:none;}
	.st18{display:inline;}
	.st19{fill:#8CC63F;}
	.st20{clip-path:url(#SVGID_00000032620094499805456580000011962580818304969860_);}
	.st21{fill:#A32422;}
	.st22{fill:#DC382C;}
	.st23{fill:#FFFFFF;}
	.st24{fill:#741113;}
	.st25{fill:#AC2724;}
	.st26{clip-path:url(#SVGID_00000074443392906508687700000003545948271760651918_);}
	.st27{clip-path:url(#SVGID_00000029738269196344919920000013027432624665025691_);}
	.st28{clip-path:url(#SVGID_00000000922963314613854890000018104755743043175572_);}
	.st29{clip-path:url(#SVGID_00000087383363157488012690000013411305443055781299_);}
	.st30{clip-path:url(#SVGID_00000013173353865709870140000002738958119836689059_);}
	.st31{clip-path:url(#SVGID_00000014630455798334815960000002168818964971921083_);}
	.st32{clip-path:url(#SVGID_00000096762591120674634820000014135923988001428403_);}
	.st33{clip-path:url(#SVGID_00000006684014901232646710000016607219861106122398_);}
	.st34{clip-path:url(#SVGID_00000091696360714956109770000008704893270071035008_);}
	.st35{clip-path:url(#SVGID_00000165951543031342765480000007103603831856578187_);}
	.st36{clip-path:url(#SVGID_00000069359528473157630430000017027631398327730829_);}
</style>
<g id="reference">
</g>
<g id="border">
	<g>
		<g>
			<path class="st3" d="M616.29,519.27H127.81c-17.47,0-31.68-14.21-31.68-31.68V109.98c0-17.47,14.21-31.68,31.68-31.68h488.48
				c17.47,0,31.68,14.21,31.68,31.68v377.61C647.96,505.06,633.75,519.27,616.29,519.27z M127.81,81.3
				c-15.81,0-28.68,12.86-28.68,28.68v377.61c0,15.81,12.86,28.68,28.68,28.68h488.48c15.81,0,28.68-12.86,28.68-28.68V109.98
				c0-15.81-12.86-28.68-28.68-28.68H127.81z"/>
		</g>
		<g>
			<path class="st3" d="M1203.95,1002.19H715.47c-17.47,0-31.68-14.21-31.68-31.68V109.98c0-17.47,14.21-31.68,31.68-31.68h488.48
				c17.47,0,31.68,14.21,31.68,31.68v860.53C1235.62,987.98,1221.41,1002.19,1203.95,1002.19z M715.47,81.3
				c-15.81,0-28.68,12.86-28.68,28.68v860.53c0,15.81,12.86,28.68,28.68,28.68h488.48c15.81,0,28.68-12.86,28.68-28.68V109.98
				c0-15.81-12.86-28.68-28.68-28.68H715.47z"/>
		</g>
		<g>
			<path class="st3" d="M1792.19,1001.7h-488.48c-17.47,0-31.68-14.21-31.68-31.68V109.49c0-17.47,14.21-31.68,31.68-31.68h488.48
				c17.47,0,31.68,14.21,31.68,31.68v860.53C1823.87,987.49,1809.66,1001.7,1792.19,1001.7z M1303.71,80.81
				c-15.81,0-28.68,12.86-28.68,28.68v860.53c0,15.81,12.86,28.68,28.68,28.68h488.48c15.81,0,28.68-12.86,28.68-28.68V109.49
				c0-15.81-12.86-28.68-28.68-28.68H1303.71z"/>
		</g>
		<g>
			<path class="st3" d="M616.29,1002.19H127.81c-17.47,0-31.68-14.21-31.68-31.68V592.9c0-17.47,14.21-31.68,31.68-31.68h488.48
				c17.47,0,31.68,14.21,31.68,31.68v377.61C647.96,987.98,633.75,1002.19,616.29,1002.19z M127.81,564.22
				c-15.81,0-28.68,12.86-28.68,28.68v377.61c0,15.81,12.86,28.68,28.68,28.68h488.48c15.81,0,28.68-12.86,28.68-28.68V592.9
				c0-15.81-12.86-28.68-28.68-28.68H127.81z"/>
		</g>
	</g>
</g>
<g id="margins" class="st17">
	<g class="st18">
		<rect x="98" y="80" class="st19" width="30" height="438"/>
		<rect x="616" y="80" class="st19" width="30" height="438"/>
		<rect x="359" y="-177" transform="matrix(-1.836970e-16 1 -1 -1.836970e-16 469 -279)" class="st19" width="30" height="544"/>
		<rect x="359" y="231" transform="matrix(-1.836970e-16 1 -1 -1.836970e-16 877 129)" class="st19" width="30" height="544"/>
		<rect x="98" y="563" class="st19" width="30" height="438"/>
		<rect x="616" y="563" class="st19" width="30" height="438"/>
		<rect x="359" y="306" transform="matrix(-1.836970e-16 1 -1 -1.836970e-16 952 204)" class="st19" width="30" height="544"/>
		<rect x="359" y="714" transform="matrix(-1.836970e-16 1 -1 -1.836970e-16 1360 612)" class="st19" width="30" height="544"/>
		<rect x="686" y="80" class="st19" width="30" height="921"/>
		<rect x="1204" y="80" class="st19" width="30" height="921"/>
		<rect x="947" y="-177" transform="matrix(-1.836970e-16 1 -1 -1.836970e-16 1057 -867)" class="st19" width="30" height="544"/>
		<rect x="947" y="714" transform="matrix(-1.836970e-16 1 -1 -1.836970e-16 1948 24)" class="st19" width="30" height="544"/>
		<rect x="1274" y="80" class="st19" width="30" height="921"/>
		<rect x="1792" y="80" class="st19" width="30" height="921"/>
		<rect x="1535" y="-177" transform="matrix(-1.836970e-16 1 -1 -1.836970e-16 1645 -1455)" class="st19" width="30" height="544"/>
		<rect x="1535" y="714" transform="matrix(-1.836970e-16 1 -1 -1.836970e-16 2536 -564)" class="st19" width="30" height="544"/>
	</g>
</g>
<g id="icons">
	<g>
		<g>
			<defs>
				<rect id="SVGID_1_" x="298.31" y="245.13" width="146.42" height="125.48"/>
			</defs>
			<clipPath id="SVGID_00000143578398394312841180000009879593018662780555_">
				<use xlink:href="#SVGID_1_"  style="overflow:visible;"/>
			</clipPath>
			<g style="clip-path:url(#SVGID_00000143578398394312841180000009879593018662780555_);">
				<path class="st21" d="M438.97,341.87c-7.81,4.08-48.29,20.73-56.96,25.29c-8.67,4.57-13.39,4.44-20.21,1.19
					c-6.82-3.26-49.79-20.73-57.57-24.44c-3.88-1.84-5.92-3.41-5.92-4.89v-14.81c0,0,56.08-12.17,65.13-15.45
					c9.05-3.27,12.17-3.36,19.89-0.55s53.77,11.14,61.38,13.92v14.58c0,1.52-1.75,3.04-5.74,5.13V341.87z"/>
				<path class="st22" d="M438.97,327.08c-7.81,4.06-48.29,20.71-56.96,25.2c-8.67,4.49-13.39,4.44-20.21,1.2
					c-6.82-3.24-49.79-20.67-57.57-24.36s-7.93-6.27-0.3-9.25c7.62-2.98,50.46-19.78,59.52-23.04c9.05-3.26,12.17-3.36,19.89-0.53
					c7.72,2.83,47.94,18.84,55.55,21.63c7.61,2.78,7.91,5.08,0.09,9.13V327.08z"/>
				<path class="st21" d="M438.97,317.75c-7.81,4.06-48.29,20.71-56.96,25.2c-8.67,4.49-13.39,4.44-20.21,1.2
					c-6.82-3.24-49.79-20.65-57.57-24.36c-3.88-1.86-5.92-3.42-5.92-4.9V300.1c0,0,56.08-12.17,65.13-15.46
					c9.05-3.29,12.17-3.36,19.89-0.53c7.72,2.83,53.77,11.12,61.38,13.91v14.59C444.71,314.13,442.96,315.65,438.97,317.75z"/>
				<path class="st22" d="M438.97,302.94c-7.81,4.08-48.29,20.71-56.96,25.2c-8.67,4.49-13.39,4.46-20.21,1.2
					c-6.82-3.26-49.79-20.65-57.57-24.36s-7.93-6.25-0.3-9.24c7.62-2.98,50.46-19.78,59.52-23.04c9.05-3.26,12.17-3.36,19.89-0.55
					c7.72,2.82,47.94,18.92,55.55,21.63s7.91,5.08,0.09,9.13V302.94z"/>
				<path class="st21" d="M438.97,292.72c-7.81,4.08-48.29,20.73-56.96,25.22c-8.67,4.49-13.39,4.44-20.21,1.19
					c-6.82-3.26-49.79-20.65-57.57-24.36c-3.88-1.84-5.92-3.41-5.92-4.89v-14.81c0,0,56.08-12.17,65.13-15.45
					c9.05-3.27,12.17-3.36,19.89-0.55s53.77,11.14,61.38,13.92v14.59C444.71,289.11,442.96,290.63,438.97,292.72z"/>
				<path class="st22" d="M438.97,277.92c-7.81,4.02-48.29,20.76-56.96,25.2c-8.67,4.44-13.39,4.44-20.21,1.2
					c-6.82-3.24-49.79-20.67-57.57-24.36s-7.93-6.27-0.3-9.25c7.62-2.98,50.46-19.78,59.52-23.04c9.05-3.26,12.17-3.36,19.89-0.53
					s47.94,18.84,55.55,21.63c7.61,2.78,7.91,5.08,0.09,9.13V277.92z"/>
			</g>
		</g>
		<polygon class="st23" points="373.8,256.89 383.47,253.73 380.85,259.98 390.68,263.66 378,264.99 375.16,271.82 370.58,264.2 
			355.92,262.87 366.86,258.93 363.58,252.87 373.8,256.89 373.8,256.89 		"/>
		<polygon class="st23" points="374.41,296.82 350.73,286.99 384.65,281.79 374.41,296.82 374.41,296.82 		"/>
		<path class="st23" d="M341.59,267.47c10.01,0,18.13,3.15,18.13,7.03c0,3.88-8.14,7.03-18.13,7.03s-18.14-3.15-18.14-7.03
			C323.45,270.62,331.57,267.47,341.59,267.47z"/>
		<polygon class="st24" points="405.69,265.54 425.76,273.46 405.7,281.39 405.69,265.54 405.69,265.54 		"/>
		<polygon class="st25" points="405.69,265.54 405.7,281.39 403.53,282.25 383.47,274.32 405.69,265.54 405.69,265.54 		"/>
	</g>
	<g>
		<g>
			<defs>
				<rect id="SVGID_00000112600535014581582870000002754608013478281641_" x="887.31" y="204.13" width="146.42" height="125.48"/>
			</defs>
			<clipPath id="SVGID_00000047028405293975691610000002495099246771348896_">
				<use xlink:href="#SVGID_00000112600535014581582870000002754608013478281641_"  style="overflow:visible;"/>
			</clipPath>
			<g style="clip-path:url(#SVGID_00000047028405293975691610000002495099246771348896_);">
				<path class="st21" d="M1027.97,300.87c-7.81,4.08-48.29,20.73-56.96,25.29c-8.67,4.57-13.39,4.44-20.21,1.19
					c-6.82-3.26-49.79-20.73-57.57-24.44c-3.88-1.84-5.92-3.41-5.92-4.89v-14.81c0,0,56.08-12.17,65.13-15.45s12.17-3.36,19.89-0.55
					c7.72,2.82,53.77,11.14,61.38,13.92v14.58c0,1.52-1.75,3.04-5.74,5.13V300.87z"/>
				<path class="st22" d="M1027.97,286.08c-7.81,4.06-48.29,20.71-56.96,25.2c-8.67,4.49-13.39,4.44-20.21,1.2
					c-6.82-3.24-49.79-20.67-57.57-24.36c-7.78-3.7-7.93-6.27-0.3-9.25c7.62-2.98,50.46-19.78,59.52-23.04
					c9.05-3.26,12.17-3.36,19.89-0.53c7.72,2.83,47.94,18.84,55.55,21.63c7.61,2.78,7.91,5.08,0.09,9.13L1027.97,286.08z"/>
				<path class="st21" d="M1027.97,276.75c-7.81,4.06-48.29,20.71-56.96,25.2c-8.67,4.49-13.39,4.44-20.21,1.2
					S901,282.5,893.23,278.79c-3.88-1.86-5.92-3.42-5.92-4.9V259.1c0,0,56.08-12.17,65.13-15.46c9.05-3.29,12.17-3.36,19.89-0.53
					c7.72,2.83,53.77,11.12,61.38,13.91v14.59C1033.71,273.13,1031.96,274.65,1027.97,276.75z"/>
				<path class="st22" d="M1027.97,261.94c-7.81,4.08-48.29,20.71-56.96,25.2c-8.67,4.49-13.39,4.46-20.21,1.2
					c-6.82-3.26-49.79-20.65-57.57-24.36c-7.78-3.71-7.93-6.25-0.3-9.24s50.46-19.78,59.52-23.04s12.17-3.36,19.89-0.55
					c7.72,2.82,47.94,18.92,55.55,21.63c7.61,2.71,7.91,5.08,0.09,9.13V261.94z"/>
				<path class="st21" d="M1027.97,251.72c-7.81,4.08-48.29,20.73-56.96,25.22c-8.67,4.49-13.39,4.44-20.21,1.19
					c-6.82-3.26-49.79-20.65-57.57-24.36c-3.88-1.84-5.92-3.41-5.92-4.89v-14.81c0,0,56.08-12.17,65.13-15.45
					c9.05-3.27,12.17-3.36,19.89-0.55c7.72,2.82,53.77,11.14,61.38,13.92v14.59C1033.71,248.11,1031.96,249.63,1027.97,251.72z"/>
				<path class="st22" d="M1027.97,236.92c-7.81,4.02-48.29,20.76-56.96,25.2c-8.67,4.44-13.39,4.44-20.21,1.2
					s-49.79-20.67-57.57-24.36c-7.78-3.7-7.93-6.27-0.3-9.25s50.46-19.78,59.52-23.04s12.17-3.36,19.89-0.53
					c7.72,2.83,47.94,18.84,55.55,21.63c7.61,2.78,7.91,5.08,0.09,9.13L1027.97,236.92z"/>
			</g>
		</g>
		<polygon class="st23" points="962.8,215.89 972.47,212.73 969.85,218.98 979.68,222.66 967,223.99 964.16,230.82 959.58,223.2 
			944.92,221.87 955.86,217.93 952.58,211.87 962.8,215.89 962.8,215.89 		"/>
		<polygon class="st23" points="963.41,255.82 939.73,245.99 973.65,240.79 963.41,255.82 963.41,255.82 		"/>
		<path class="st23" d="M930.59,226.47c10.01,0,18.13,3.15,18.13,7.03c0,3.88-8.14,7.03-18.13,7.03c-9.98,0-18.14-3.15-18.14-7.03
			C912.45,229.62,920.57,226.47,930.59,226.47z"/>
		<polygon class="st24" points="994.69,224.54 1014.76,232.46 994.7,240.39 994.69,224.54 994.69,224.54 		"/>
		<polygon class="st25" points="994.69,224.54 994.7,240.39 992.53,241.25 972.47,233.32 994.69,224.54 994.69,224.54 		"/>
	</g>
	<g>
		<g>
			<defs>
				<rect id="SVGID_00000023980410334379233610000015927477977143964563_" x="887.31" y="416.13" width="146.42" height="125.48"/>
			</defs>
			<clipPath id="SVGID_00000007386642853716323350000015050314869812543919_">
				<use xlink:href="#SVGID_00000023980410334379233610000015927477977143964563_"  style="overflow:visible;"/>
			</clipPath>
			<g style="clip-path:url(#SVGID_00000007386642853716323350000015050314869812543919_);">
				<path class="st21" d="M1027.97,512.87c-7.81,4.08-48.29,20.73-56.96,25.29c-8.67,4.57-13.39,4.44-20.21,1.19
					c-6.82-3.26-49.79-20.73-57.57-24.44c-3.88-1.84-5.92-3.41-5.92-4.89v-14.81c0,0,56.08-12.17,65.13-15.45s12.17-3.36,19.89-0.55
					c7.72,2.82,53.77,11.14,61.38,13.92v14.58c0,1.52-1.75,3.04-5.74,5.13V512.87z"/>
				<path class="st22" d="M1027.97,498.08c-7.81,4.06-48.29,20.71-56.96,25.2c-8.67,4.49-13.39,4.44-20.21,1.2
					s-49.79-20.67-57.57-24.36c-7.78-3.7-7.93-6.27-0.3-9.25c7.62-2.98,50.46-19.78,59.52-23.04c9.05-3.26,12.17-3.36,19.89-0.53
					c7.72,2.83,47.94,18.84,55.55,21.63c7.61,2.78,7.91,5.08,0.09,9.13L1027.97,498.08z"/>
				<path class="st21" d="M1027.97,488.75c-7.81,4.06-48.29,20.71-56.96,25.2c-8.67,4.49-13.39,4.44-20.21,1.2
					c-6.82-3.24-49.79-20.65-57.57-24.36c-3.88-1.86-5.92-3.42-5.92-4.9V471.1c0,0,56.08-12.17,65.13-15.46s12.17-3.36,19.89-0.53
					c7.72,2.83,53.77,11.12,61.38,13.91v14.59C1033.71,485.13,1031.96,486.65,1027.97,488.75z"/>
				<path class="st22" d="M1027.97,473.94c-7.81,4.08-48.29,20.71-56.96,25.2c-8.67,4.49-13.39,4.46-20.21,1.2
					c-6.82-3.26-49.79-20.65-57.57-24.36c-7.78-3.71-7.93-6.25-0.3-9.24c7.62-2.98,50.46-19.78,59.52-23.04
					c9.05-3.26,12.17-3.36,19.89-0.55c7.72,2.82,47.94,18.92,55.55,21.63c7.61,2.71,7.91,5.08,0.09,9.13V473.94z"/>
				<path class="st21" d="M1027.97,463.72c-7.81,4.08-48.29,20.73-56.96,25.22c-8.67,4.49-13.39,4.44-20.21,1.19
					c-6.82-3.26-49.79-20.65-57.57-24.36c-3.88-1.84-5.92-3.41-5.92-4.89v-14.81c0,0,56.08-12.17,65.13-15.45s12.17-3.36,19.89-0.55
					c7.72,2.82,53.77,11.14,61.38,13.92v14.59C1033.71,460.11,1031.96,461.63,1027.97,463.72z"/>
				<path class="st22" d="M1027.97,448.92c-7.81,4.02-48.29,20.76-56.96,25.2c-8.67,4.44-13.39,4.44-20.21,1.2
					s-49.79-20.67-57.57-24.36c-7.78-3.7-7.93-6.27-0.3-9.25c7.62-2.98,50.46-19.78,59.52-23.04c9.05-3.26,12.17-3.36,19.89-0.53
					c7.72,2.83,47.94,18.84,55.55,21.63c7.61,2.78,7.91,5.08,0.09,9.13L1027.97,448.92z"/>
			</g>
		</g>
		<polygon class="st23" points="962.8,427.89 972.47,424.73 969.85,430.98 979.68,434.66 967,435.99 964.16,442.82 959.58,435.2 
			944.92,433.87 955.86,429.93 952.58,423.87 962.8,427.89 962.8,427.89 		"/>
		<polygon class="st23" points="963.41,467.82 939.73,457.99 973.65,452.79 963.41,467.82 963.41,467.82 		"/>
		<path class="st23" d="M930.59,438.47c10.01,0,18.13,3.15,18.13,7.03c0,3.88-8.14,7.03-18.13,7.03c-9.98,0-18.14-3.15-18.14-7.03
			C912.45,441.62,920.57,438.47,930.59,438.47z"/>
		<polygon class="st24" points="994.69,436.54 1014.76,444.46 994.7,452.39 994.69,436.54 994.69,436.54 		"/>
		<polygon class="st25" points="994.69,436.54 994.7,452.39 992.53,453.25 972.47,445.32 994.69,436.54 994.69,436.54 		"/>
	</g>
	<g>
		<g>
			<defs>
				<rect id="SVGID_00000008118513071130167860000017767154699814975379_" x="887.31" y="764.13" width="146.42" height="125.48"/>
			</defs>
			<clipPath id="SVGID_00000034793374075364087250000000747303814798421930_">
				<use xlink:href="#SVGID_00000008118513071130167860000017767154699814975379_"  style="overflow:visible;"/>
			</clipPath>
			<g style="clip-path:url(#SVGID_00000034793374075364087250000000747303814798421930_);">
				<path class="st21" d="M1027.97,860.87c-7.81,4.08-48.29,20.73-56.96,25.29c-8.67,4.57-13.39,4.44-20.21,1.19
					c-6.82-3.26-49.79-20.73-57.57-24.44c-3.88-1.84-5.92-3.41-5.92-4.89v-14.81c0,0,56.08-12.17,65.13-15.45
					c9.05-3.27,12.17-3.36,19.89-0.55c7.72,2.82,53.77,11.14,61.38,13.92v14.58c0,1.52-1.75,3.04-5.74,5.13V860.87z"/>
				<path class="st22" d="M1027.97,846.08c-7.81,4.06-48.29,20.71-56.96,25.2c-8.67,4.49-13.39,4.44-20.21,1.2
					s-49.79-20.67-57.57-24.36c-7.78-3.7-7.93-6.27-0.3-9.25c7.62-2.98,50.46-19.78,59.52-23.04c9.05-3.26,12.17-3.36,19.89-0.53
					c7.72,2.83,47.94,18.84,55.55,21.63c7.61,2.78,7.91,5.08,0.09,9.13L1027.97,846.08z"/>
				<path class="st21" d="M1027.97,836.75c-7.81,4.06-48.29,20.71-56.96,25.2c-8.67,4.49-13.39,4.44-20.21,1.2
					c-6.82-3.24-49.79-20.65-57.57-24.36c-3.88-1.86-5.92-3.42-5.92-4.9V819.1c0,0,56.08-12.17,65.13-15.46s12.17-3.36,19.89-0.53
					c7.72,2.83,53.77,11.12,61.38,13.91v14.59C1033.71,833.13,1031.96,834.65,1027.97,836.75z"/>
				<path class="st22" d="M1027.97,821.94c-7.81,4.08-48.29,20.71-56.96,25.2c-8.67,4.49-13.39,4.46-20.21,1.2
					s-49.79-20.65-57.57-24.36c-7.78-3.71-7.93-6.25-0.3-9.24c7.62-2.98,50.46-19.78,59.52-23.04c9.05-3.26,12.17-3.36,19.89-0.55
					c7.72,2.82,47.94,18.92,55.55,21.63c7.61,2.71,7.91,5.08,0.09,9.13V821.94z"/>
				<path class="st21" d="M1027.97,811.72c-7.81,4.08-48.29,20.73-56.96,25.22c-8.67,4.49-13.39,4.44-20.21,1.19
					s-49.79-20.65-57.57-24.36c-3.88-1.84-5.92-3.41-5.92-4.89v-14.81c0,0,56.08-12.17,65.13-15.45s12.17-3.36,19.89-0.55
					c7.72,2.82,53.77,11.14,61.38,13.92v14.59C1033.71,808.11,1031.96,809.63,1027.97,811.72z"/>
				<path class="st22" d="M1027.97,796.92c-7.81,4.02-48.29,20.76-56.96,25.2c-8.67,4.44-13.39,4.44-20.21,1.2
					s-49.79-20.67-57.57-24.36c-7.78-3.7-7.93-6.27-0.3-9.25s50.46-19.78,59.52-23.04s12.17-3.36,19.89-0.53
					c7.72,2.83,47.94,18.84,55.55,21.63c7.61,2.78,7.91,5.08,0.09,9.13L1027.97,796.92z"/>
			</g>
		</g>
		<polygon class="st23" points="962.8,775.89 972.47,772.73 969.85,778.98 979.68,782.66 967,783.99 964.16,790.82 959.58,783.2 
			944.92,781.87 955.86,777.93 952.58,771.87 962.8,775.89 962.8,775.89 		"/>
		<polygon class="st23" points="963.41,815.82 939.73,805.99 973.65,800.79 963.41,815.82 963.41,815.82 		"/>
		<path class="st23" d="M930.59,786.47c10.01,0,18.13,3.15,18.13,7.03s-8.14,7.03-18.13,7.03c-9.98,0-18.14-3.15-18.14-7.03
			S920.57,786.47,930.59,786.47z"/>
		<polygon class="st24" points="994.69,784.54 1014.76,792.46 994.7,800.39 994.69,784.54 994.69,784.54 		"/>
		<polygon class="st25" points="994.69,784.54 994.7,800.39 992.53,801.25 972.47,793.32 994.69,784.54 994.69,784.54 		"/>
	</g>
	<g>
		<g>
			<defs>
				<rect id="SVGID_00000130618415753529148580000013468298461466752896_" x="176.31" y="728.13" width="146.42" height="125.48"/>
			</defs>
			<clipPath id="SVGID_00000046337150086468771440000001995149895489224078_">
				<use xlink:href="#SVGID_00000130618415753529148580000013468298461466752896_"  style="overflow:visible;"/>
			</clipPath>
			<g style="clip-path:url(#SVGID_00000046337150086468771440000001995149895489224078_);">
				<path class="st21" d="M316.97,824.87c-7.81,4.08-48.29,20.73-56.96,25.29c-8.67,4.57-13.39,4.44-20.21,1.19
					c-6.82-3.26-49.79-20.73-57.57-24.44c-3.88-1.84-5.92-3.41-5.92-4.89v-14.81c0,0,56.08-12.17,65.13-15.45
					c9.05-3.27,12.17-3.36,19.89-0.55c7.72,2.82,53.77,11.14,61.38,13.92v14.58c0,1.52-1.75,3.04-5.74,5.13V824.87z"/>
				<path class="st22" d="M316.97,810.08c-7.81,4.06-48.29,20.71-56.96,25.2c-8.67,4.49-13.39,4.44-20.21,1.2
					s-49.79-20.67-57.57-24.36s-7.93-6.27-0.3-9.25c7.62-2.98,50.46-19.78,59.52-23.04c9.05-3.26,12.17-3.36,19.89-0.53
					s47.94,18.84,55.55,21.63c7.61,2.78,7.91,5.08,0.09,9.13V810.08z"/>
				<path class="st21" d="M316.97,800.75c-7.81,4.06-48.29,20.71-56.96,25.2c-8.67,4.49-13.39,4.44-20.21,1.2
					c-6.82-3.24-49.79-20.65-57.57-24.36c-3.88-1.86-5.92-3.42-5.92-4.9V783.1c0,0,56.08-12.17,65.13-15.46s12.17-3.36,19.89-0.53
					c7.72,2.83,53.77,11.12,61.38,13.91v14.59C322.71,797.13,320.96,798.65,316.97,800.75z"/>
				<path class="st22" d="M316.97,785.94c-7.81,4.08-48.29,20.71-56.96,25.2c-8.67,4.49-13.39,4.46-20.21,1.2
					s-49.79-20.65-57.57-24.36c-7.78-3.71-7.93-6.25-0.3-9.24c7.62-2.98,50.46-19.78,59.52-23.04c9.05-3.26,12.17-3.36,19.89-0.55
					c7.72,2.82,47.94,18.92,55.55,21.63s7.91,5.08,0.09,9.13V785.94z"/>
				<path class="st21" d="M316.97,775.72c-7.81,4.08-48.29,20.73-56.96,25.22c-8.67,4.49-13.39,4.44-20.21,1.19
					s-49.79-20.65-57.57-24.36c-3.88-1.84-5.92-3.41-5.92-4.89v-14.81c0,0,56.08-12.17,65.13-15.45s12.17-3.36,19.89-0.55
					c7.72,2.82,53.77,11.14,61.38,13.92v14.59C322.71,772.11,320.96,773.63,316.97,775.72z"/>
				<path class="st22" d="M316.97,760.92c-7.81,4.02-48.29,20.76-56.96,25.2c-8.67,4.44-13.39,4.44-20.21,1.2
					s-49.79-20.67-57.57-24.36s-7.93-6.27-0.3-9.25c7.62-2.98,50.46-19.78,59.52-23.04s12.17-3.36,19.89-0.53
					s47.94,18.84,55.55,21.63c7.61,2.78,7.91,5.08,0.09,9.13V760.92z"/>
			</g>
		</g>
		<polygon class="st23" points="251.8,739.89 261.47,736.73 258.85,742.98 268.68,746.66 256,747.99 253.16,754.82 248.58,747.2 
			233.92,745.87 244.86,741.93 241.58,735.87 251.8,739.89 251.8,739.89 		"/>
		<polygon class="st23" points="252.41,779.82 228.73,769.99 262.65,764.79 252.41,779.82 252.41,779.82 		"/>
		<path class="st23" d="M219.59,750.47c10.01,0,18.13,3.15,18.13,7.03s-8.14,7.03-18.13,7.03s-18.14-3.15-18.14-7.03
			S209.57,750.47,219.59,750.47z"/>
		<polygon class="st24" points="283.69,748.54 303.76,756.46 283.7,764.39 283.69,748.54 283.69,748.54 		"/>
		<polygon class="st25" points="283.69,748.54 283.7,764.39 281.53,765.25 261.47,757.32 283.69,748.54 283.69,748.54 		"/>
	</g>
	<g>
		<g>
			<defs>
				<rect id="SVGID_00000139290388709225620880000011123155552534373807_" x="420.31" y="728.13" width="146.42" height="125.48"/>
			</defs>
			<clipPath id="SVGID_00000097491375044362376420000008141506263641659837_">
				<use xlink:href="#SVGID_00000139290388709225620880000011123155552534373807_"  style="overflow:visible;"/>
			</clipPath>
			<g style="clip-path:url(#SVGID_00000097491375044362376420000008141506263641659837_);">
				<path class="st21" d="M560.97,824.87c-7.81,4.08-48.29,20.73-56.96,25.29c-8.67,4.57-13.39,4.44-20.21,1.19
					c-6.82-3.26-49.79-20.73-57.57-24.44c-3.88-1.84-5.92-3.41-5.92-4.89v-14.81c0,0,56.08-12.17,65.13-15.45
					c9.05-3.27,12.17-3.36,19.89-0.55c7.72,2.82,53.77,11.14,61.38,13.92v14.58c0,1.52-1.75,3.04-5.74,5.13V824.87z"/>
				<path class="st22" d="M560.97,810.08c-7.81,4.06-48.29,20.71-56.96,25.2c-8.67,4.49-13.39,4.44-20.21,1.2
					c-6.82-3.24-49.79-20.67-57.57-24.36s-7.93-6.27-0.3-9.25c7.62-2.98,50.46-19.78,59.52-23.04c9.05-3.26,12.17-3.36,19.89-0.53
					c7.72,2.83,47.94,18.84,55.55,21.63c7.61,2.78,7.91,5.08,0.09,9.13V810.08z"/>
				<path class="st21" d="M560.97,800.75c-7.81,4.06-48.29,20.71-56.96,25.2c-8.67,4.49-13.39,4.44-20.21,1.2
					c-6.82-3.24-49.79-20.65-57.57-24.36c-3.88-1.86-5.92-3.42-5.92-4.9V783.1c0,0,56.08-12.17,65.13-15.46
					c9.05-3.29,12.17-3.36,19.89-0.53c7.72,2.83,53.77,11.12,61.38,13.91v14.59C566.71,797.13,564.96,798.65,560.97,800.75z"/>
				<path class="st22" d="M560.97,785.94c-7.81,4.08-48.29,20.71-56.96,25.2c-8.67,4.49-13.39,4.46-20.21,1.2
					c-6.82-3.26-49.79-20.65-57.57-24.36c-7.78-3.71-7.93-6.25-0.3-9.24c7.62-2.98,50.46-19.78,59.52-23.04
					c9.05-3.26,12.17-3.36,19.89-0.55c7.72,2.82,47.94,18.92,55.55,21.63s7.91,5.08,0.09,9.13V785.94z"/>
				<path class="st21" d="M560.97,775.72c-7.81,4.08-48.29,20.73-56.96,25.22c-8.67,4.49-13.39,4.44-20.21,1.19
					c-6.82-3.26-49.79-20.65-57.57-24.36c-3.88-1.84-5.92-3.41-5.92-4.89v-14.81c0,0,56.08-12.17,65.13-15.45
					c9.05-3.27,12.17-3.36,19.89-0.55c7.72,2.82,53.77,11.14,61.38,13.92v14.59C566.71,772.11,564.96,773.63,560.97,775.72z"/>
				<path class="st22" d="M560.97,760.92c-7.81,4.02-48.29,20.76-56.96,25.2c-8.67,4.44-13.39,4.44-20.21,1.2
					c-6.82-3.24-49.79-20.67-57.57-24.36s-7.93-6.27-0.3-9.25c7.62-2.98,50.46-19.78,59.52-23.04c9.05-3.26,12.17-3.36,19.89-0.53
					c7.72,2.83,47.94,18.84,55.55,21.63s7.91,5.08,0.09,9.13V760.92z"/>
			</g>
		</g>
		<polygon class="st23" points="495.8,739.89 505.47,736.73 502.85,742.98 512.68,746.66 500,747.99 497.16,754.82 492.58,747.2 
			477.92,745.87 488.86,741.93 485.58,735.87 495.8,739.89 495.8,739.89 		"/>
		<polygon class="st23" points="496.41,779.82 472.73,769.99 506.65,764.79 496.41,779.82 496.41,779.82 		"/>
		<path class="st23" d="M463.59,750.47c10.01,0,18.13,3.15,18.13,7.03s-8.14,7.03-18.13,7.03s-18.14-3.15-18.14-7.03
			S453.57,750.47,463.59,750.47z"/>
		<polygon class="st24" points="527.69,748.54 547.76,756.46 527.7,764.39 527.69,748.54 527.69,748.54 		"/>
		<polygon class="st25" points="527.69,748.54 527.7,764.39 525.53,765.25 505.47,757.32 527.69,748.54 527.69,748.54 		"/>
	</g>
</g>
<g id="text">
	<g>
		<path class="st16" d="M229.19,142.78h4.61c0.32,2.59,1.37,4.75,5.72,4.75c2.84,0,4.86-1.58,4.86-3.96c0-2.38-1.19-3.28-5.36-3.96
			c-6.16-0.83-9.07-2.7-9.07-7.52c0-4.21,3.6-7.38,8.96-7.38c5.54,0,8.85,2.52,9.36,7.45h-4.39c-0.47-2.7-2.02-3.85-4.97-3.85
			c-2.92,0-4.43,1.4-4.43,3.38c0,2.09,0.86,3.13,5.33,3.78c6.05,0.83,9.18,2.56,9.18,7.7c0,4.46-3.78,7.96-9.47,7.96
			C232.5,151.13,229.55,147.64,229.19,142.78z"/>
		<path class="st16" d="M252.91,126.37c0-1.44,1.15-2.52,2.59-2.52c1.44,0,2.59,1.08,2.59,2.52c0,1.4-1.15,2.48-2.59,2.48
			C254.07,128.85,252.91,127.77,252.91,126.37z M253.38,131.94h4.36v18.83h-4.36V131.94z"/>
		<path class="st16" d="M263.03,131.94h4.36v2.88c0.9-1.76,2.95-3.28,5.72-3.28c2.45,0,4.39,1.04,5.33,3.38
			c1.44-2.34,4.03-3.38,6.37-3.38c3.46,0,6.26,2.12,6.26,7.31v11.91h-4.36v-11.63c0-2.77-1.19-3.96-3.35-3.96s-4.14,1.44-4.14,4.32
			v11.27h-4.36v-11.63c0-2.77-1.22-3.96-3.35-3.96c-2.16,0-4.14,1.44-4.14,4.32v11.27h-4.36V131.94z"/>
		<path class="st16" d="M296.08,131.94h4.36v3.02c1.04-1.8,3.38-3.42,6.16-3.42c4.72,0,8.35,3.49,8.35,9.57v0.29
			c0,6.05-3.49,9.72-8.35,9.72c-2.99,0-5.15-1.48-6.16-3.31v9.4h-4.36V131.94z M310.48,141.48v-0.29c0-4.18-2.16-6.23-5-6.23
			c-3.02,0-5.18,2.05-5.18,6.23v0.29c0,4.21,2.05,6.19,5.22,6.19C308.71,147.67,310.48,145.51,310.48,141.48z"/>
		<path class="st16" d="M318.97,123.23h4.36v27.54h-4.36V123.23z"/>
		<path class="st16" d="M327.36,141.56v-0.29c0-5.83,4-9.72,9.36-9.72c4.68,0,8.89,2.77,8.89,9.5v1.26h-13.79
			c0.14,3.56,1.94,5.58,5.18,5.58c2.63,0,4-1.04,4.32-2.88h4.21c-0.61,3.96-3.82,6.12-8.64,6.12
			C331.36,151.13,327.36,147.49,327.36,141.56z M341.29,139.4c-0.22-3.24-1.87-4.68-4.57-4.68c-2.63,0-4.39,1.76-4.82,4.68H341.29z"
			/>
		<path class="st16" d="M358.43,125.03h7.81c8.96,0,13.32,5.11,13.32,12.6v0.32c0,7.49-4.36,12.81-13.39,12.81h-7.74V125.03z
			 M366.02,146.99c5.76,0,8.53-3.31,8.53-9v-0.29c0-5.54-2.52-8.89-8.57-8.89h-2.77v18.18H366.02z"/>
		<path class="st16" d="M382.4,145.55c0-4.39,4.25-5.98,9.65-5.98h2.34v-0.97c0-2.52-0.86-3.78-3.42-3.78
			c-2.27,0-3.38,1.08-3.6,2.95h-4.21c0.36-4.39,3.85-6.23,8.06-6.23c4.21,0,7.52,1.73,7.52,6.88v12.35h-4.28v-2.3
			c-1.22,1.62-2.88,2.66-5.76,2.66C385.25,151.13,382.4,149.47,382.4,145.55z M394.39,144.18v-1.87h-2.23
			c-3.31,0-5.44,0.76-5.44,3.06c0,1.58,0.86,2.63,3.02,2.63C392.41,148,394.39,146.59,394.39,144.18z"/>
		<path class="st16" d="M404.47,145.51v-10.29h-2.52v-3.28h2.52v-4.14h4.36v4.14h4.14v3.28h-4.14v9.9c0,1.66,0.79,2.41,2.16,2.41
			c0.86,0,1.51-0.11,2.12-0.36v3.46c-0.68,0.25-1.62,0.47-2.95,0.47C406.42,151.09,404.47,149.08,404.47,145.51z"/>
		<path class="st16" d="M415.85,145.55c0-4.39,4.25-5.98,9.65-5.98h2.34v-0.97c0-2.52-0.86-3.78-3.42-3.78
			c-2.27,0-3.38,1.08-3.6,2.95h-4.21c0.36-4.39,3.85-6.23,8.06-6.23c4.21,0,7.52,1.73,7.52,6.88v12.35h-4.28v-2.3
			c-1.22,1.62-2.88,2.66-5.76,2.66C418.69,151.13,415.85,149.47,415.85,145.55z M427.83,144.18v-1.87h-2.23
			c-3.31,0-5.44,0.76-5.44,3.06c0,1.58,0.86,2.63,3.02,2.63C425.85,148,427.83,146.59,427.83,144.18z"/>
		<path class="st16" d="M441.55,147.75v3.02h-4.36v-27.54h4.36v11.73c1.04-1.8,3.38-3.42,6.16-3.42c4.72,0,8.35,3.49,8.35,9.57v0.29
			c0,6.05-3.49,9.72-8.35,9.72C444.72,151.13,442.56,149.65,441.55,147.75z M451.59,141.48v-0.29c0-4.18-2.16-6.23-5-6.23
			c-3.02,0-5.18,2.05-5.18,6.23v0.29c0,4.21,2.05,6.19,5.22,6.19C449.83,147.67,451.59,145.51,451.59,141.48z"/>
		<path class="st16" d="M458.62,145.55c0-4.39,4.25-5.98,9.65-5.98h2.34v-0.97c0-2.52-0.86-3.78-3.42-3.78
			c-2.27,0-3.38,1.08-3.6,2.95h-4.21c0.36-4.39,3.85-6.23,8.06-6.23c4.21,0,7.52,1.73,7.52,6.88v12.35h-4.28v-2.3
			c-1.22,1.62-2.88,2.66-5.76,2.66C461.46,151.13,458.62,149.47,458.62,145.55z M470.6,144.18v-1.87h-2.23
			c-3.31,0-5.44,0.76-5.44,3.06c0,1.58,0.86,2.63,3.02,2.63C468.62,148,470.6,146.59,470.6,144.18z"/>
		<path class="st16" d="M478.52,144.9h4.1c0.22,1.91,1.19,3.02,3.74,3.02c2.34,0,3.38-0.83,3.38-2.41c0-1.55-1.26-2.12-4.03-2.59
			c-4.97-0.79-6.8-2.2-6.8-5.72c0-3.78,3.53-5.65,7.06-5.65c3.85,0,6.91,1.44,7.38,5.69h-4.03c-0.36-1.73-1.33-2.52-3.35-2.52
			c-1.87,0-2.99,0.9-2.99,2.23c0,1.37,0.9,1.91,3.89,2.41c4.43,0.68,7.06,1.76,7.06,5.76c0,3.82-2.7,6.01-7.52,6.01
			C481.55,151.13,478.7,148.9,478.52,144.9z"/>
		<path class="st16" d="M496.49,141.56v-0.29c0-5.83,4-9.72,9.36-9.72c4.68,0,8.89,2.77,8.89,9.5v1.26h-13.79
			c0.14,3.56,1.94,5.58,5.18,5.58c2.63,0,4-1.04,4.32-2.88h4.21c-0.61,3.96-3.82,6.12-8.64,6.12
			C500.48,151.13,496.49,147.49,496.49,141.56z M510.42,139.4c-0.22-3.24-1.87-4.68-4.57-4.68c-2.63,0-4.39,1.76-4.82,4.68H510.42z"
			/>
	</g>
	<g>
		<path class="st16" d="M310.87,398.18h7.31c4.93,0,9,2.16,9,7.52v0.14c0,5.47-4.1,7.6-9,7.6H314v10.47h-3.13V398.18z M318.4,410.96
			c3.67,0,5.65-1.8,5.65-5.11v-0.14c0-3.64-2.16-5-5.65-5H314v10.26H318.4z"/>
		<path class="st16" d="M331.57,405.09h2.99v3.38c1.19-2.12,2.81-3.6,6.19-3.71v2.81c-3.78,0.18-6.19,1.37-6.19,6.01v10.33h-2.99
			V405.09z"/>
		<path class="st16" d="M344.64,399.19c0-1.08,0.9-1.98,1.98-1.98c1.08,0,1.98,0.9,1.98,1.98c0,1.08-0.9,1.98-1.98,1.98
			C345.54,401.17,344.64,400.27,344.64,399.19z M345.18,405.09h2.99v18.83h-2.99V405.09z"/>
		<path class="st16" d="M354.29,405.09h2.99v2.88c0.86-1.76,2.92-3.2,5.62-3.2c2.41,0,4.54,1.01,5.51,3.53
			c1.3-2.45,4.1-3.53,6.44-3.53c3.38,0,6.33,2.02,6.33,7.49v11.66h-2.99v-11.88c0-3.31-1.4-4.68-4-4.68c-2.45,0-4.97,1.66-4.97,5.04
			v11.52h-2.99v-11.88c0-3.31-1.4-4.68-4-4.68c-2.45,0-4.97,1.66-4.97,5.04v11.52h-2.99V405.09z"/>
		<path class="st16" d="M385.5,418.69c0-4.36,4.61-5.83,9.43-5.83h2.7v-1.37c0-2.99-1.15-4.25-4.03-4.25
			c-2.59,0-4.03,1.08-4.32,3.38h-2.99c0.4-4.28,3.82-5.87,7.45-5.87c3.6,0,6.88,1.48,6.88,6.73v12.42h-2.99v-2.38
			c-1.4,1.76-3.1,2.7-5.87,2.7C388.27,424.24,385.5,422.55,385.5,418.69z M397.63,417.33v-2.34h-2.59c-3.78,0-6.55,0.94-6.55,3.71
			c0,1.94,0.94,3.17,3.56,3.17C395.22,421.86,397.63,420.24,397.63,417.33z"/>
		<path class="st16" d="M406.49,405.09h2.99v3.38c1.19-2.12,2.81-3.6,6.19-3.71v2.81c-3.78,0.18-6.19,1.37-6.19,6.01v10.33h-2.99
			V405.09z"/>
		<path class="st16" d="M425.46,421.97l-7.38-16.88h3.2l5.76,13.5l5.22-13.5h3.06l-10.4,25.38h-3.02L425.46,421.97z"/>
	</g>
	<g>
		<path class="st16" d="M794.14,138.06v-0.29c0-7.74,5.33-13.14,12.49-13.14c5.9,0,10.48,2.95,11.05,9h-4.86
			c-0.54-3.42-2.45-5.18-6.16-5.18c-4.54,0-7.49,3.53-7.49,9.29v0.29c0,5.79,2.77,9.21,7.52,9.21c3.56,0,6.08-1.8,6.59-5.44h4.68
			c-0.76,6.19-5.15,9.32-11.27,9.32C798.64,151.13,794.14,145.98,794.14,138.06z"/>
		<path class="st16" d="M821.86,123.23h4.36v27.54h-4.36V123.23z"/>
		<path class="st16" d="M831.33,144v-12.06h4.36v11.55c0,2.84,1.19,4.14,3.71,4.14c2.34,0,4.39-1.51,4.39-4.5v-11.19h4.36v18.83
			h-4.36v-2.95c-0.94,1.84-2.92,3.31-5.98,3.31C834.1,151.13,831.33,149.01,831.33,144z"/>
		<path class="st16" d="M851.85,144.9h4.1c0.22,1.91,1.19,3.02,3.74,3.02c2.34,0,3.38-0.83,3.38-2.41c0-1.55-1.26-2.12-4.03-2.59
			c-4.97-0.79-6.8-2.2-6.8-5.72c0-3.78,3.53-5.65,7.06-5.65c3.85,0,6.91,1.44,7.38,5.69h-4.03c-0.36-1.73-1.33-2.52-3.35-2.52
			c-1.87,0-2.99,0.9-2.99,2.23c0,1.37,0.9,1.91,3.89,2.41c4.43,0.68,7.06,1.76,7.06,5.76c0,3.82-2.7,6.01-7.52,6.01
			C854.87,151.13,852.03,148.9,851.85,144.9z"/>
		<path class="st16" d="M871.79,145.51v-10.29h-2.52v-3.28h2.52v-4.14h4.36v4.14h4.14v3.28h-4.14v9.9c0,1.66,0.79,2.41,2.16,2.41
			c0.86,0,1.51-0.11,2.12-0.36v3.46c-0.68,0.25-1.62,0.47-2.95,0.47C873.74,151.09,871.79,149.08,871.79,145.51z"/>
		<path class="st16" d="M883.1,141.56v-0.29c0-5.83,4-9.72,9.36-9.72c4.68,0,8.89,2.77,8.89,9.5v1.26h-13.79
			c0.14,3.56,1.94,5.58,5.18,5.58c2.63,0,4-1.04,4.32-2.88h4.21c-0.61,3.96-3.82,6.12-8.64,6.12
			C887.09,151.13,883.1,147.49,883.1,141.56z M897.03,139.4c-0.22-3.24-1.87-4.68-4.57-4.68c-2.63,0-4.39,1.76-4.82,4.68H897.03z"/>
		<path class="st16" d="M905.24,131.94h4.36v3.53c1.19-2.38,2.95-3.78,6.12-3.82v4.07c-3.82,0.04-6.12,1.26-6.12,5.26v9.79h-4.36
			V131.94z"/>
		<path class="st16" d="M917.91,141.56v-0.29c0-5.83,4-9.72,9.36-9.72c4.68,0,8.89,2.77,8.89,9.5v1.26h-13.79
			c0.14,3.56,1.94,5.58,5.18,5.58c2.63,0,4-1.04,4.32-2.88h4.21c-0.61,3.96-3.82,6.12-8.64,6.12
			C921.9,151.13,917.91,147.49,917.91,141.56z M931.84,139.4c-0.22-3.24-1.87-4.68-4.57-4.68c-2.63,0-4.39,1.76-4.82,4.68H931.84z"
			/>
		<path class="st16" d="M938.82,141.66v-0.29c0-6.01,3.56-9.83,8.46-9.83c3.06,0,4.97,1.4,6.01,3.28v-11.59h4.36v27.54h-4.36v-3.17
			c-1.01,1.87-3.42,3.53-6.19,3.53C942.39,151.13,938.82,147.78,938.82,141.66z M953.44,141.45v-0.29c0-4.14-1.91-6.19-5.08-6.19
			c-3.2,0-5.08,2.23-5.08,6.3v0.29c0,4.14,2.09,6.12,4.9,6.12C951.21,147.67,953.44,145.66,953.44,141.45z"/>
		<path class="st16" d="M971.76,125.03h7.81c8.96,0,13.32,5.11,13.32,12.6v0.32c0,7.49-4.36,12.81-13.39,12.81h-7.74V125.03z
			 M979.36,146.99c5.76,0,8.53-3.31,8.53-9v-0.29c0-5.54-2.52-8.89-8.57-8.89h-2.77v18.18H979.36z"/>
		<path class="st16" d="M995.74,145.55c0-4.39,4.25-5.98,9.65-5.98h2.34v-0.97c0-2.52-0.86-3.78-3.42-3.78
			c-2.27,0-3.38,1.08-3.6,2.95h-4.21c0.36-4.39,3.85-6.23,8.06-6.23c4.21,0,7.52,1.73,7.52,6.88v12.35h-4.28v-2.3
			c-1.22,1.62-2.88,2.66-5.76,2.66C998.58,151.13,995.74,149.47,995.74,145.55z M1007.73,144.18v-1.87h-2.23
			c-3.31,0-5.43,0.76-5.43,3.06c0,1.58,0.86,2.63,3.02,2.63C1005.75,148,1007.73,146.59,1007.73,144.18z"/>
		<path class="st16" d="M1017.81,145.51v-10.29h-2.52v-3.28h2.52v-4.14h4.36v4.14h4.14v3.28h-4.14v9.9c0,1.66,0.79,2.41,2.16,2.41
			c0.86,0,1.51-0.11,2.12-0.36v3.46c-0.68,0.25-1.62,0.47-2.95,0.47C1019.75,151.09,1017.81,149.08,1017.81,145.51z"/>
		<path class="st16" d="M1029.18,145.55c0-4.39,4.25-5.98,9.65-5.98h2.34v-0.97c0-2.52-0.86-3.78-3.42-3.78
			c-2.27,0-3.38,1.08-3.6,2.95h-4.21c0.36-4.39,3.85-6.23,8.06-6.23c4.21,0,7.52,1.73,7.52,6.88v12.35h-4.28v-2.3
			c-1.22,1.62-2.88,2.66-5.76,2.66C1032.03,151.13,1029.18,149.47,1029.18,145.55z M1041.17,144.18v-1.87h-2.23
			c-3.31,0-5.44,0.76-5.44,3.06c0,1.58,0.86,2.63,3.02,2.63C1039.19,148,1041.17,146.59,1041.17,144.18z"/>
		<path class="st16" d="M1054.89,147.75v3.02h-4.36v-27.54h4.36v11.73c1.04-1.8,3.38-3.42,6.15-3.42c4.72,0,8.35,3.49,8.35,9.57
			v0.29c0,6.05-3.49,9.72-8.35,9.72C1058.05,151.13,1055.89,149.65,1054.89,147.75z M1064.93,141.48v-0.29c0-4.18-2.16-6.23-5-6.23
			c-3.02,0-5.18,2.05-5.18,6.23v0.29c0,4.21,2.05,6.19,5.22,6.19C1063.17,147.67,1064.93,145.51,1064.93,141.48z"/>
		<path class="st16" d="M1071.95,145.55c0-4.39,4.25-5.98,9.65-5.98h2.34v-0.97c0-2.52-0.86-3.78-3.42-3.78
			c-2.27,0-3.38,1.08-3.6,2.95h-4.21c0.36-4.39,3.85-6.23,8.06-6.23c4.21,0,7.52,1.73,7.52,6.88v12.35h-4.28v-2.3
			c-1.22,1.62-2.88,2.66-5.76,2.66C1074.79,151.13,1071.95,149.47,1071.95,145.55z M1083.94,144.18v-1.87h-2.23
			c-3.31,0-5.43,0.76-5.43,3.06c0,1.58,0.86,2.63,3.02,2.63C1081.96,148,1083.94,146.59,1083.94,144.18z"/>
		<path class="st16" d="M1091.86,144.9h4.1c0.22,1.91,1.19,3.02,3.74,3.02c2.34,0,3.38-0.83,3.38-2.41c0-1.55-1.26-2.12-4.03-2.59
			c-4.97-0.79-6.8-2.2-6.8-5.72c0-3.78,3.53-5.65,7.06-5.65c3.85,0,6.91,1.44,7.38,5.69h-4.03c-0.36-1.73-1.33-2.52-3.35-2.52
			c-1.87,0-2.99,0.9-2.99,2.23c0,1.37,0.9,1.91,3.89,2.41c4.43,0.68,7.06,1.76,7.06,5.76c0,3.82-2.7,6.01-7.52,6.01
			C1094.88,151.13,1092.04,148.9,1091.86,144.9z"/>
		<path class="st16" d="M1109.82,141.56v-0.29c0-5.83,4-9.72,9.36-9.72c4.68,0,8.89,2.77,8.89,9.5v1.26h-13.79
			c0.14,3.56,1.94,5.58,5.18,5.58c2.63,0,4-1.04,4.32-2.88h4.21c-0.61,3.96-3.82,6.12-8.64,6.12
			C1113.82,151.13,1109.82,147.49,1109.82,141.56z M1123.75,139.4c-0.22-3.24-1.87-4.68-4.57-4.68c-2.63,0-4.39,1.76-4.82,4.68
			H1123.75z"/>
	</g>
	<g>
		<path class="st16" d="M946.53,357.18h7.31c4.93,0,9,2.16,9,7.52v0.14c0,5.47-4.1,7.6-9,7.6h-4.18v10.47h-3.13V357.18z
			 M954.05,369.96c3.67,0,5.65-1.8,5.65-5.11v-0.14c0-3.64-2.16-5-5.65-5h-4.39v10.26H954.05z"/>
		<path class="st16" d="M971.15,360.27l-5.76,4.14v-2.92l5.98-4.32h2.92v25.74h-3.13V360.27z"/>
	</g>
	<g>
		<path class="st16" d="M943.74,569.18h7.31c4.93,0,9,2.16,9,7.52v0.14c0,5.47-4.1,7.6-9,7.6h-4.18v10.47h-3.13V569.18z
			 M951.26,581.96c3.67,0,5.65-1.8,5.65-5.11v-0.14c0-3.64-2.16-5-5.65-5h-4.39v10.26H951.26z"/>
		<path class="st16" d="M962.1,594.19l10.22-10.76c2.34-2.48,3.71-4.82,3.71-7.45c0-2.88-1.69-4.61-4.61-4.61
			c-2.99,0-4.93,1.69-5.44,5.72h-2.92c0.4-5.04,3.46-8.24,8.35-8.24c4.75,0,7.78,2.81,7.78,7.23c0,3.17-2.02,6.26-5.18,9.36
			l-7.09,6.91h12.42v2.56H962.1V594.19z"/>
	</g>
	<g>
		<path class="st16" d="M942.95,917.18h7.31c4.93,0,9,2.16,9,7.52v0.14c0,5.47-4.1,7.6-9,7.6h-4.18v10.47h-3.13V917.18z
			 M950.47,929.96c3.67,0,5.65-1.8,5.65-5.11v-0.14c0-3.64-2.16-5-5.65-5h-4.39v10.26H950.47z"/>
		<path class="st16" d="M963.65,924.09h2.99v2.99c0.86-1.76,2.95-3.31,6.05-3.31c3.89,0,6.62,2.12,6.62,7.59v11.55h-2.99v-11.77
			c0-3.31-1.4-4.79-4.43-4.79c-2.77,0-5.25,1.76-5.25,5.15v11.41h-2.99V924.09z"/>
	</g>
	<g>
		<path class="st16" d="M264.15,608.03h4.79v10.94h11.55v-10.94h4.82v25.74h-4.82v-10.94h-11.55v10.94h-4.79V608.03z"/>
		<path class="st16" d="M297.81,608.03h6.26l8.5,25.74h-4.97l-2.05-6.37h-9.83l-2.02,6.37h-4.5L297.81,608.03z M296.83,623.91h7.59
			l-3.78-11.95L296.83,623.91z"/>
		<path class="st16" d="M325.06,608.03h7.81c8.96,0,13.32,5.11,13.32,12.6v0.32c0,7.49-4.36,12.81-13.39,12.81h-7.74V608.03z
			 M332.65,629.99c5.76,0,8.53-3.31,8.53-9v-0.29c0-5.54-2.52-8.89-8.57-8.89h-2.77v18.18H332.65z"/>
		<path class="st16" d="M349.03,628.55c0-4.39,4.25-5.98,9.65-5.98h2.34v-0.97c0-2.52-0.86-3.78-3.42-3.78
			c-2.27,0-3.38,1.08-3.6,2.95h-4.21c0.36-4.39,3.85-6.23,8.06-6.23c4.21,0,7.52,1.73,7.52,6.88v12.35h-4.28v-2.3
			c-1.22,1.62-2.88,2.66-5.76,2.66C351.88,634.13,349.03,632.47,349.03,628.55z M361.02,627.18v-1.87h-2.23
			c-3.31,0-5.44,0.76-5.44,3.06c0,1.58,0.86,2.63,3.02,2.63C359.04,631,361.02,629.59,361.02,627.18z"/>
		<path class="st16" d="M371.1,628.51v-10.29h-2.52v-3.28h2.52v-4.14h4.36v4.14h4.14v3.28h-4.14v9.9c0,1.66,0.79,2.41,2.16,2.41
			c0.86,0,1.51-0.11,2.12-0.36v3.46c-0.68,0.25-1.62,0.47-2.95,0.47C373.04,634.09,371.1,632.08,371.1,628.51z"/>
		<path class="st16" d="M382.48,628.55c0-4.39,4.25-5.98,9.65-5.98h2.34v-0.97c0-2.52-0.86-3.78-3.42-3.78
			c-2.27,0-3.38,1.08-3.6,2.95h-4.21c0.36-4.39,3.85-6.23,8.06-6.23c4.21,0,7.52,1.73,7.52,6.88v12.35h-4.28v-2.3
			c-1.22,1.62-2.88,2.66-5.76,2.66C385.32,634.13,382.48,632.47,382.48,628.55z M394.46,627.18v-1.87h-2.23
			c-3.31,0-5.44,0.76-5.44,3.06c0,1.58,0.86,2.63,3.02,2.63C392.48,631,394.46,629.59,394.46,627.18z"/>
		<path class="st16" d="M408.18,630.75v3.02h-4.36v-27.54h4.36v11.73c1.04-1.8,3.38-3.42,6.16-3.42c4.72,0,8.35,3.49,8.35,9.57v0.29
			c0,6.05-3.49,9.72-8.35,9.72C411.35,634.13,409.19,632.65,408.18,630.75z M418.22,624.48v-0.29c0-4.18-2.16-6.23-5-6.23
			c-3.02,0-5.18,2.05-5.18,6.23v0.29c0,4.21,2.05,6.19,5.22,6.19C416.46,630.67,418.22,628.51,418.22,624.48z"/>
		<path class="st16" d="M425.24,628.55c0-4.39,4.25-5.98,9.65-5.98h2.34v-0.97c0-2.52-0.86-3.78-3.42-3.78
			c-2.27,0-3.38,1.08-3.6,2.95H426c0.36-4.39,3.85-6.23,8.06-6.23c4.21,0,7.52,1.73,7.52,6.88v12.35h-4.28v-2.3
			c-1.22,1.62-2.88,2.66-5.76,2.66C428.09,634.13,425.24,632.47,425.24,628.55z M437.23,627.18v-1.87H435
			c-3.31,0-5.44,0.76-5.44,3.06c0,1.58,0.86,2.63,3.02,2.63C435.25,631,437.23,629.59,437.23,627.18z"/>
		<path class="st16" d="M445.15,627.9h4.1c0.22,1.91,1.19,3.02,3.74,3.02c2.34,0,3.38-0.83,3.38-2.41c0-1.55-1.26-2.12-4.03-2.59
			c-4.97-0.79-6.8-2.2-6.8-5.72c0-3.78,3.53-5.65,7.06-5.65c3.85,0,6.91,1.44,7.38,5.69h-4.03c-0.36-1.73-1.33-2.52-3.35-2.52
			c-1.87,0-2.99,0.9-2.99,2.23c0,1.37,0.9,1.91,3.89,2.41c4.43,0.68,7.06,1.76,7.06,5.76c0,3.81-2.7,6.01-7.52,6.01
			C448.18,634.13,445.33,631.9,445.15,627.9z"/>
		<path class="st16" d="M463.12,624.55v-0.29c0-5.83,4-9.72,9.36-9.72c4.68,0,8.89,2.77,8.89,9.5v1.26h-13.79
			c0.14,3.56,1.94,5.58,5.18,5.58c2.63,0,4-1.04,4.32-2.88h4.21c-0.61,3.96-3.82,6.12-8.64,6.12
			C467.11,634.13,463.12,630.49,463.12,624.55z M477.05,622.4c-0.22-3.24-1.87-4.68-4.57-4.68c-2.63,0-4.39,1.76-4.82,4.68H477.05z"
			/>
	</g>
	<g>
		<path class="st16" d="M188.94,881.18h7.31c4.93,0,9,2.16,9,7.52v0.14c0,5.47-4.1,7.6-9,7.6h-4.18v10.47h-3.13V881.18z
			 M196.47,893.96c3.67,0,5.65-1.8,5.65-5.11v-0.14c0-3.64-2.16-5-5.65-5h-4.39v10.26H196.47z"/>
		<path class="st16" d="M209.64,888.09h2.99v3.38c1.19-2.12,2.81-3.6,6.19-3.71v2.81c-3.78,0.18-6.19,1.37-6.19,6.01v10.33h-2.99
			V888.09z"/>
		<path class="st16" d="M222.71,882.19c0-1.08,0.9-1.98,1.98-1.98c1.08,0,1.98,0.9,1.98,1.98s-0.9,1.98-1.98,1.98
			C223.61,884.17,222.71,883.27,222.71,882.19z M223.25,888.09h2.99v18.83h-2.99V888.09z"/>
		<path class="st16" d="M232.36,888.09h2.99v2.88c0.86-1.76,2.92-3.2,5.62-3.2c2.41,0,4.54,1.01,5.51,3.53
			c1.3-2.45,4.1-3.53,6.44-3.53c3.38,0,6.33,2.02,6.33,7.49v11.66h-2.99v-11.88c0-3.31-1.4-4.68-4-4.68c-2.45,0-4.97,1.66-4.97,5.04
			v11.52h-2.99v-11.88c0-3.31-1.4-4.68-4-4.68c-2.45,0-4.97,1.66-4.97,5.04v11.52h-2.99V888.09z"/>
		<path class="st16" d="M263.57,901.7c0-4.36,4.61-5.83,9.43-5.83h2.7v-1.37c0-2.99-1.15-4.25-4.03-4.25
			c-2.59,0-4.03,1.08-4.32,3.38h-2.99c0.4-4.28,3.82-5.87,7.45-5.87c3.6,0,6.88,1.48,6.88,6.73v12.42h-2.99v-2.38
			c-1.4,1.76-3.1,2.7-5.87,2.7C266.34,907.24,263.57,905.55,263.57,901.7z M275.7,900.33v-2.34h-2.59c-3.78,0-6.55,0.94-6.55,3.71
			c0,1.94,0.94,3.17,3.56,3.17C273.29,904.86,275.7,903.24,275.7,900.33z"/>
		<path class="st16" d="M284.56,888.09h2.99v3.38c1.19-2.12,2.81-3.6,6.19-3.71v2.81c-3.78,0.18-6.19,1.37-6.19,6.01v10.33h-2.99
			V888.09z"/>
		<path class="st16" d="M303.53,904.97l-7.38-16.88h3.2l5.76,13.5l5.22-13.5h3.06l-10.4,25.38h-3.02L303.53,904.97z"/>
	</g>
	<g>
		<path class="st16" d="M435.52,881.18h7.74c4.93,0,9,2.02,9,7.16v0.14c0,4.25-2.84,6.33-6.37,7.02l7.88,11.41h-3.49l-7.67-11.2
			h-3.96v11.2h-3.13V881.18z M443.47,893.24c3.67,0,5.65-1.58,5.65-4.75v-0.14c0-3.49-2.16-4.64-5.65-4.64h-4.82v9.54H443.47z"/>
		<path class="st16" d="M455.97,897.7v-0.29c0-5.69,3.64-9.65,8.82-9.65c4.36,0,8.46,2.63,8.46,9.36v0.97h-14.18
			c0.14,4.28,2.2,6.66,6.05,6.66c2.92,0,4.61-1.08,5-3.28h2.99c-0.65,3.78-3.78,5.76-8.03,5.76
			C459.75,907.24,455.97,903.49,455.97,897.7z M470.18,895.68c-0.29-3.89-2.3-5.44-5.4-5.44c-3.06,0-5.11,2.09-5.62,5.44H470.18z"/>
		<path class="st16" d="M477.82,888.09h2.99v3.17c1.08-1.84,3.64-3.49,6.37-3.49c4.93,0,8.57,3.6,8.57,9.47v0.29
			c0,5.76-3.38,9.72-8.57,9.72c-3.1,0-5.29-1.55-6.37-3.42v9.65h-2.99V888.09z M492.65,897.66v-0.29c0-4.75-2.63-7.13-5.8-7.13
			c-3.49,0-6.16,2.3-6.16,7.13v0.29c0,4.82,2.52,7.09,6.19,7.09C490.63,904.75,492.65,902.23,492.65,897.66z"/>
		<path class="st16" d="M500.46,879.09h3.02v27.82h-3.02V879.09z"/>
		<path class="st16" d="M509.14,882.19c0-1.08,0.9-1.98,1.98-1.98c1.08,0,1.98,0.9,1.98,1.98s-0.9,1.98-1.98,1.98
			C510.04,884.17,509.14,883.27,509.14,882.19z M509.68,888.09h2.99v18.83h-2.99V888.09z"/>
		<path class="st16" d="M517.38,897.7v-0.29c0-5.76,4.1-9.65,9.14-9.65c3.92,0,7.6,1.8,8.17,6.59h-2.95
			c-0.47-2.99-2.63-4.1-5.22-4.1c-3.42,0-6.05,2.74-6.05,7.16v0.29c0,4.61,2.52,7.05,6.16,7.05c2.66,0,5.08-1.55,5.4-4.61h2.77
			c-0.4,4.07-3.67,7.09-8.21,7.09C521.34,907.24,517.38,903.53,517.38,897.7z"/>
		<path class="st16" d="M537.76,901.7c0-4.36,4.61-5.83,9.43-5.83h2.7v-1.37c0-2.99-1.15-4.25-4.03-4.25
			c-2.59,0-4.03,1.08-4.32,3.38h-2.99c0.4-4.28,3.82-5.87,7.45-5.87c3.6,0,6.88,1.48,6.88,6.73v12.42h-2.99v-2.38
			c-1.4,1.76-3.1,2.7-5.87,2.7C540.53,907.24,537.76,905.55,537.76,901.7z M549.89,900.33v-2.34h-2.59c-3.78,0-6.55,0.94-6.55,3.71
			c0,1.94,0.94,3.17,3.56,3.17C547.48,904.86,549.89,903.24,549.89,900.33z"/>
	</g>
	<g>
		<g>
			<path class="st3" d="M384.67,792.33H343c-0.83,0-1.5-0.67-1.5-1.5s0.67-1.5,1.5-1.5h41.67c0.83,0,1.5,0.67,1.5,1.5
				S385.5,792.33,384.67,792.33z"/>
		</g>
		<g>
			<g>
				<polygon class="st3" points="381.6,801.3 399.74,790.83 381.6,780.36 				"/>
			</g>
		</g>
	</g>
	<g>
		<path class="st16" d="M1352.98,126.03h4.79v10.94h11.55v-10.94h4.82v25.74h-4.82v-10.94h-11.55v10.94h-4.79V126.03z"/>
		<path class="st16" d="M1386.64,126.03h6.26l8.49,25.74h-4.97l-2.05-6.37h-9.83l-2.02,6.37h-4.5L1386.64,126.03z M1385.67,141.91
			h7.59l-3.78-11.95L1385.67,141.91z"/>
		<path class="st16" d="M1412.6,139.06v-0.29c0-7.74,5.33-13.14,12.49-13.14c5.9,0,10.47,2.95,11.05,9h-4.86
			c-0.54-3.42-2.45-5.18-6.16-5.18c-4.54,0-7.49,3.53-7.49,9.29v0.29c0,5.79,2.77,9.21,7.52,9.21c3.56,0,6.08-1.8,6.59-5.44h4.68
			c-0.76,6.19-5.15,9.32-11.27,9.32C1417.1,152.13,1412.6,146.98,1412.6,139.06z"/>
		<path class="st16" d="M1440.32,124.23h4.36v27.54h-4.36V124.23z"/>
		<path class="st16" d="M1449.79,145v-12.06h4.36v11.55c0,2.84,1.19,4.14,3.71,4.14c2.34,0,4.39-1.51,4.39-4.5v-11.19h4.36v18.83
			h-4.36v-2.95c-0.94,1.84-2.92,3.31-5.98,3.31C1452.56,152.13,1449.79,150.01,1449.79,145z"/>
		<path class="st16" d="M1470.31,145.9h4.1c0.22,1.91,1.19,3.02,3.74,3.02c2.34,0,3.38-0.83,3.38-2.41c0-1.55-1.26-2.12-4.03-2.59
			c-4.97-0.79-6.8-2.2-6.8-5.72c0-3.78,3.53-5.65,7.05-5.65c3.85,0,6.91,1.44,7.38,5.69h-4.03c-0.36-1.73-1.33-2.52-3.35-2.52
			c-1.87,0-2.99,0.9-2.99,2.23c0,1.37,0.9,1.91,3.89,2.41c4.43,0.68,7.05,1.76,7.05,5.76c0,3.82-2.7,6.01-7.52,6.01
			C1473.33,152.13,1470.49,149.9,1470.31,145.9z"/>
		<path class="st16" d="M1490.25,146.51v-10.29h-2.52v-3.28h2.52v-4.14h4.36v4.14h4.14v3.28h-4.14v9.9c0,1.66,0.79,2.41,2.16,2.41
			c0.86,0,1.51-0.11,2.12-0.36v3.46c-0.68,0.25-1.62,0.47-2.95,0.47C1492.19,152.09,1490.25,150.08,1490.25,146.51z"/>
		<path class="st16" d="M1501.55,142.56v-0.29c0-5.83,3.99-9.72,9.36-9.72c4.68,0,8.89,2.77,8.89,9.5v1.26h-13.79
			c0.14,3.56,1.94,5.58,5.18,5.58c2.63,0,4-1.04,4.32-2.88h4.21c-0.61,3.96-3.82,6.12-8.64,6.12
			C1505.55,152.13,1501.55,148.49,1501.55,142.56z M1515.48,140.4c-0.22-3.24-1.87-4.68-4.57-4.68c-2.63,0-4.39,1.76-4.82,4.68
			H1515.48z"/>
		<path class="st16" d="M1523.69,132.94h4.36v3.53c1.19-2.38,2.95-3.78,6.12-3.82v4.07c-3.82,0.04-6.12,1.26-6.12,5.26v9.79h-4.36
			V132.94z"/>
		<path class="st16" d="M1536.37,142.56v-0.29c0-5.83,4-9.72,9.36-9.72c4.68,0,8.89,2.77,8.89,9.5v1.26h-13.79
			c0.14,3.56,1.94,5.58,5.18,5.58c2.63,0,4-1.04,4.32-2.88h4.21c-0.61,3.96-3.82,6.12-8.64,6.12
			C1540.36,152.13,1536.37,148.49,1536.37,142.56z M1550.29,140.4c-0.22-3.24-1.87-4.68-4.57-4.68c-2.63,0-4.39,1.76-4.82,4.68
			H1550.29z"/>
		<path class="st16" d="M1557.28,142.66v-0.29c0-6.01,3.56-9.83,8.46-9.83c3.06,0,4.97,1.4,6.01,3.28v-11.59h4.36v27.54h-4.36v-3.17
			c-1.01,1.87-3.42,3.53-6.19,3.53C1560.84,152.13,1557.28,148.78,1557.28,142.66z M1571.89,142.45v-0.29
			c0-4.14-1.91-6.19-5.08-6.19c-3.2,0-5.08,2.23-5.08,6.3v0.29c0,4.14,2.09,6.12,4.89,6.12
			C1569.66,148.67,1571.89,146.66,1571.89,142.45z"/>
		<path class="st16" d="M1590.22,126.03h7.81c8.96,0,13.32,5.11,13.32,12.6v0.32c0,7.49-4.36,12.81-13.39,12.81h-7.74V126.03z
			 M1597.82,147.99c5.76,0,8.53-3.31,8.53-9v-0.29c0-5.54-2.52-8.89-8.57-8.89h-2.77v18.18H1597.82z"/>
		<path class="st16" d="M1614.2,146.55c0-4.39,4.25-5.98,9.65-5.98h2.34v-0.97c0-2.52-0.86-3.78-3.42-3.78
			c-2.27,0-3.38,1.08-3.6,2.95h-4.21c0.36-4.39,3.85-6.23,8.06-6.23c4.21,0,7.52,1.73,7.52,6.88v12.35h-4.28v-2.3
			c-1.22,1.62-2.88,2.66-5.76,2.66C1617.04,152.13,1614.2,150.47,1614.2,146.55z M1626.18,145.18v-1.87h-2.23
			c-3.31,0-5.44,0.76-5.44,3.06c0,1.58,0.86,2.63,3.02,2.63C1624.2,149,1626.18,147.59,1626.18,145.18z"/>
		<path class="st16" d="M1636.26,146.51v-10.29h-2.52v-3.28h2.52v-4.14h4.36v4.14h4.14v3.28h-4.14v9.9c0,1.66,0.79,2.41,2.16,2.41
			c0.86,0,1.51-0.11,2.12-0.36v3.46c-0.68,0.25-1.62,0.47-2.95,0.47C1638.21,152.09,1636.26,150.08,1636.26,146.51z"/>
		<path class="st16" d="M1647.64,146.55c0-4.39,4.25-5.98,9.65-5.98h2.34v-0.97c0-2.52-0.86-3.78-3.42-3.78
			c-2.27,0-3.38,1.08-3.6,2.95h-4.21c0.36-4.39,3.85-6.23,8.06-6.23s7.52,1.73,7.52,6.88v12.35h-4.28v-2.3
			c-1.22,1.62-2.88,2.66-5.76,2.66C1650.48,152.13,1647.64,150.47,1647.64,146.55z M1659.62,145.18v-1.87h-2.23
			c-3.31,0-5.43,0.76-5.43,3.06c0,1.58,0.86,2.63,3.02,2.63C1657.65,149,1659.62,147.59,1659.62,145.18z"/>
		<path class="st16" d="M1673.34,148.75v3.02h-4.36v-27.54h4.36v11.73c1.04-1.8,3.38-3.42,6.16-3.42c4.71,0,8.35,3.49,8.35,9.57
			v0.29c0,6.05-3.49,9.72-8.35,9.72C1676.51,152.13,1674.35,150.65,1673.34,148.75z M1683.38,142.48v-0.29c0-4.18-2.16-6.23-5-6.23
			c-3.02,0-5.18,2.05-5.18,6.23v0.29c0,4.21,2.05,6.19,5.22,6.19C1681.62,148.67,1683.38,146.51,1683.38,142.48z"/>
		<path class="st16" d="M1690.41,146.55c0-4.39,4.25-5.98,9.65-5.98h2.34v-0.97c0-2.52-0.86-3.78-3.42-3.78
			c-2.27,0-3.38,1.08-3.6,2.95h-4.21c0.36-4.39,3.85-6.23,8.06-6.23c4.21,0,7.52,1.73,7.52,6.88v12.35h-4.28v-2.3
			c-1.22,1.62-2.88,2.66-5.76,2.66C1693.25,152.13,1690.41,150.47,1690.41,146.55z M1702.39,145.18v-1.87h-2.23
			c-3.31,0-5.44,0.76-5.44,3.06c0,1.58,0.86,2.63,3.02,2.63C1700.41,149,1702.39,147.59,1702.39,145.18z"/>
		<path class="st16" d="M1710.31,145.9h4.1c0.22,1.91,1.19,3.02,3.74,3.02c2.34,0,3.38-0.83,3.38-2.41c0-1.55-1.26-2.12-4.03-2.59
			c-4.97-0.79-6.8-2.2-6.8-5.72c0-3.78,3.53-5.65,7.05-5.65c3.85,0,6.91,1.44,7.38,5.69h-4.03c-0.36-1.73-1.33-2.52-3.35-2.52
			c-1.87,0-2.99,0.9-2.99,2.23c0,1.37,0.9,1.91,3.89,2.41c4.43,0.68,7.05,1.76,7.05,5.76c0,3.82-2.7,6.01-7.52,6.01
			C1713.34,152.13,1710.49,149.9,1710.31,145.9z"/>
		<path class="st16" d="M1728.28,142.56v-0.29c0-5.83,4-9.72,9.36-9.72c4.68,0,8.89,2.77,8.89,9.5v1.26h-13.79
			c0.14,3.56,1.94,5.58,5.18,5.58c2.63,0,4-1.04,4.32-2.88h4.21c-0.61,3.96-3.82,6.12-8.64,6.12
			C1732.27,152.13,1728.28,148.49,1728.28,142.56z M1742.21,140.4c-0.22-3.24-1.87-4.68-4.57-4.68c-2.63,0-4.39,1.76-4.82,4.68
			H1742.21z"/>
	</g>
	<g>
		<g>
			<defs>
				<rect id="SVGID_00000182515211146230491370000009613454367925954223_" x="1353.31" y="204.13" width="146.42" height="125.48"/>
			</defs>
			<clipPath id="SVGID_00000079476715266282309360000008548141875961633157_">
				<use xlink:href="#SVGID_00000182515211146230491370000009613454367925954223_"  style="overflow:visible;"/>
			</clipPath>
			<g style="clip-path:url(#SVGID_00000079476715266282309360000008548141875961633157_);">
				<path class="st21" d="M1493.97,300.87c-7.81,4.08-48.29,20.73-56.96,25.29c-8.67,4.57-13.39,4.44-20.21,1.19
					c-6.82-3.26-49.79-20.73-57.57-24.44c-3.88-1.84-5.92-3.41-5.92-4.89v-14.81c0,0,56.08-12.17,65.13-15.45s12.17-3.36,19.89-0.55
					s53.77,11.14,61.38,13.92v14.58c0,1.52-1.75,3.04-5.74,5.13V300.87z"/>
				<path class="st22" d="M1493.97,286.08c-7.81,4.06-48.29,20.71-56.96,25.2s-13.39,4.44-20.21,1.2
					c-6.82-3.24-49.79-20.67-57.57-24.36s-7.93-6.27-0.3-9.25c7.62-2.98,50.46-19.78,59.52-23.04c9.05-3.26,12.17-3.36,19.89-0.53
					s47.94,18.84,55.55,21.63c7.61,2.78,7.91,5.08,0.09,9.13L1493.97,286.08z"/>
				<path class="st21" d="M1493.97,276.75c-7.81,4.06-48.29,20.71-56.96,25.2s-13.39,4.44-20.21,1.2s-49.79-20.65-57.57-24.36
					c-3.88-1.86-5.92-3.42-5.92-4.9V259.1c0,0,56.08-12.17,65.13-15.46c9.05-3.29,12.17-3.36,19.89-0.53s53.77,11.12,61.38,13.91
					v14.59C1499.71,273.13,1497.96,274.65,1493.97,276.75z"/>
				<path class="st22" d="M1493.97,261.94c-7.81,4.08-48.29,20.71-56.96,25.2s-13.39,4.46-20.21,1.2
					c-6.82-3.26-49.79-20.65-57.57-24.36s-7.93-6.25-0.3-9.24s50.46-19.78,59.52-23.04s12.17-3.36,19.89-0.55
					s47.94,18.92,55.55,21.63c7.61,2.71,7.91,5.08,0.09,9.13V261.94z"/>
				<path class="st21" d="M1493.97,251.72c-7.81,4.08-48.29,20.73-56.96,25.22s-13.39,4.44-20.21,1.19
					c-6.82-3.26-49.79-20.65-57.57-24.36c-3.88-1.84-5.92-3.41-5.92-4.89v-14.81c0,0,56.08-12.17,65.13-15.45
					c9.05-3.27,12.17-3.36,19.89-0.55s53.77,11.14,61.38,13.92v14.59C1499.71,248.11,1497.96,249.63,1493.97,251.72z"/>
				<path class="st22" d="M1493.97,236.92c-7.81,4.02-48.29,20.76-56.96,25.2s-13.39,4.44-20.21,1.2s-49.79-20.67-57.57-24.36
					s-7.93-6.27-0.3-9.25s50.46-19.78,59.52-23.04s12.17-3.36,19.89-0.53s47.94,18.84,55.55,21.63c7.61,2.78,7.91,5.08,0.09,9.13
					L1493.97,236.92z"/>
			</g>
		</g>
		<polygon class="st23" points="1428.8,215.89 1438.47,212.73 1435.85,218.98 1445.68,222.66 1433,223.99 1430.16,230.82 
			1425.58,223.2 1410.92,221.87 1421.86,217.93 1418.58,211.87 1428.8,215.89 1428.8,215.89 		"/>
		<polygon class="st23" points="1429.41,255.82 1405.73,245.99 1439.65,240.79 1429.41,255.82 1429.41,255.82 		"/>
		<path class="st23" d="M1396.59,226.47c10.01,0,18.12,3.15,18.12,7.03c0,3.88-8.14,7.03-18.12,7.03c-9.98,0-18.14-3.15-18.14-7.03
			C1378.45,229.62,1386.57,226.47,1396.59,226.47z"/>
		<polygon class="st24" points="1460.69,224.54 1480.76,232.46 1460.7,240.39 1460.69,224.54 1460.69,224.54 		"/>
		<polygon class="st25" points="1460.69,224.54 1460.7,240.39 1458.53,241.25 1438.47,233.32 1460.69,224.54 1460.69,224.54 		"/>
	</g>
	<g>
		<g>
			<defs>
				<rect id="SVGID_00000028284003327971003850000012372323362926641311_" x="1597.31" y="204.13" width="146.42" height="125.48"/>
			</defs>
			<clipPath id="SVGID_00000084531339855697855330000016915510891635184281_">
				<use xlink:href="#SVGID_00000028284003327971003850000012372323362926641311_"  style="overflow:visible;"/>
			</clipPath>
			<g style="clip-path:url(#SVGID_00000084531339855697855330000016915510891635184281_);">
				<path class="st21" d="M1737.97,300.87c-7.81,4.08-48.29,20.73-56.96,25.29c-8.67,4.57-13.39,4.44-20.21,1.19
					c-6.82-3.26-49.79-20.73-57.57-24.44c-3.88-1.84-5.92-3.41-5.92-4.89v-14.81c0,0,56.08-12.17,65.13-15.45s12.17-3.36,19.89-0.55
					s53.77,11.14,61.38,13.92v14.58c0,1.52-1.75,3.04-5.74,5.13V300.87z"/>
				<path class="st22" d="M1737.97,286.08c-7.81,4.06-48.29,20.71-56.96,25.2s-13.39,4.44-20.21,1.2
					c-6.82-3.24-49.79-20.67-57.57-24.36s-7.93-6.27-0.3-9.25c7.62-2.98,50.46-19.78,59.52-23.04c9.05-3.26,12.17-3.36,19.89-0.53
					s47.94,18.84,55.55,21.63c7.61,2.78,7.91,5.08,0.09,9.13L1737.97,286.08z"/>
				<path class="st21" d="M1737.97,276.75c-7.81,4.06-48.29,20.71-56.96,25.2s-13.39,4.44-20.21,1.2s-49.79-20.65-57.57-24.36
					c-3.88-1.86-5.92-3.42-5.92-4.9V259.1c0,0,56.08-12.17,65.13-15.46c9.05-3.29,12.17-3.36,19.89-0.53s53.77,11.12,61.38,13.91
					v14.59C1743.71,273.13,1741.96,274.65,1737.97,276.75z"/>
				<path class="st22" d="M1737.97,261.94c-7.81,4.08-48.29,20.71-56.96,25.2s-13.39,4.46-20.21,1.2
					c-6.82-3.26-49.79-20.65-57.57-24.36s-7.93-6.25-0.3-9.24s50.46-19.78,59.52-23.04s12.17-3.36,19.89-0.55
					s47.94,18.92,55.55,21.63c7.61,2.71,7.91,5.08,0.09,9.13V261.94z"/>
				<path class="st21" d="M1737.97,251.72c-7.81,4.08-48.29,20.73-56.96,25.22s-13.39,4.44-20.21,1.19
					c-6.82-3.26-49.79-20.65-57.57-24.36c-3.88-1.84-5.92-3.41-5.92-4.89v-14.81c0,0,56.08-12.17,65.13-15.45
					c9.05-3.27,12.17-3.36,19.89-0.55s53.77,11.14,61.38,13.92v14.59C1743.71,248.11,1741.96,249.63,1737.97,251.72z"/>
				<path class="st22" d="M1737.97,236.92c-7.81,4.02-48.29,20.76-56.96,25.2s-13.39,4.44-20.21,1.2s-49.79-20.67-57.57-24.36
					s-7.93-6.27-0.3-9.25s50.46-19.78,59.52-23.04s12.17-3.36,19.89-0.53s47.94,18.84,55.55,21.63c7.61,2.78,7.91,5.08,0.09,9.13
					L1737.97,236.92z"/>
			</g>
		</g>
		<polygon class="st23" points="1672.8,215.89 1682.47,212.73 1679.85,218.98 1689.68,222.66 1677,223.99 1674.16,230.82 
			1669.58,223.2 1654.92,221.87 1665.86,217.93 1662.58,211.87 1672.8,215.89 1672.8,215.89 		"/>
		<polygon class="st23" points="1673.41,255.82 1649.73,245.99 1683.65,240.79 1673.41,255.82 1673.41,255.82 		"/>
		<path class="st23" d="M1640.59,226.47c10.01,0,18.12,3.15,18.12,7.03c0,3.88-8.14,7.03-18.12,7.03c-9.98,0-18.14-3.15-18.14-7.03
			C1622.45,229.62,1630.57,226.47,1640.59,226.47z"/>
		<polygon class="st24" points="1704.69,224.54 1724.76,232.46 1704.7,240.39 1704.69,224.54 1704.69,224.54 		"/>
		<polygon class="st25" points="1704.69,224.54 1704.7,240.39 1702.53,241.25 1682.47,233.32 1704.69,224.54 1704.69,224.54 		"/>
	</g>
	<g>
		<path class="st16" d="M1412.6,357.18h7.31c4.93,0,9,2.16,9,7.52v0.14c0,5.47-4.1,7.6-9,7.6h-4.18v10.47h-3.13V357.18z
			 M1420.12,369.96c3.67,0,5.65-1.8,5.65-5.11v-0.14c0-3.64-2.16-5-5.65-5h-4.39v10.26H1420.12z"/>
		<path class="st16" d="M1437.22,360.27l-5.76,4.14v-2.92l5.97-4.32h2.92v25.74h-3.13V360.27z"/>
	</g>
	<g>
		<path class="st16" d="M1655.75,357.18h7.74c4.93,0,9,2.02,9,7.16v0.14c0,4.25-2.84,6.33-6.37,7.02l7.88,11.41h-3.49l-7.67-11.19
			h-3.96v11.19h-3.13V357.18z M1663.71,369.24c3.67,0,5.65-1.58,5.65-4.75v-0.14c0-3.49-2.16-4.64-5.65-4.64h-4.82v9.54H1663.71z"/>
		<path class="st16" d="M1682.07,360.27l-5.76,4.14v-2.92l5.97-4.32h2.92v25.74h-3.13V360.27z"/>
	</g>
	<g>
		<g>
			<path class="st3" d="M1561.67,268.33H1520c-0.83,0-1.5-0.67-1.5-1.5s0.67-1.5,1.5-1.5h41.67c0.83,0,1.5,0.67,1.5,1.5
				S1562.49,268.33,1561.67,268.33z"/>
		</g>
		<g>
			<g>
				<polygon class="st3" points="1558.6,277.3 1576.74,266.83 1558.6,256.36 				"/>
			</g>
		</g>
	</g>
	<g>
		<g>
			<defs>
				<rect id="SVGID_00000096772615011423295450000011525617159698221970_" x="1353.31" y="416.13" width="146.42" height="125.48"/>
			</defs>
			<clipPath id="SVGID_00000062905227627115465740000000929980150260141207_">
				<use xlink:href="#SVGID_00000096772615011423295450000011525617159698221970_"  style="overflow:visible;"/>
			</clipPath>
			<g style="clip-path:url(#SVGID_00000062905227627115465740000000929980150260141207_);">
				<path class="st21" d="M1493.97,512.87c-7.81,4.08-48.29,20.73-56.96,25.29s-13.39,4.44-20.21,1.19
					c-6.82-3.26-49.79-20.73-57.57-24.44c-3.88-1.84-5.92-3.41-5.92-4.89v-14.81c0,0,56.08-12.17,65.13-15.45s12.17-3.36,19.89-0.55
					s53.77,11.14,61.38,13.92v14.58c0,1.52-1.75,3.04-5.74,5.13V512.87z"/>
				<path class="st22" d="M1493.97,498.08c-7.81,4.06-48.29,20.71-56.96,25.2s-13.39,4.44-20.21,1.2s-49.79-20.67-57.57-24.36
					s-7.93-6.27-0.3-9.25c7.62-2.98,50.46-19.78,59.52-23.04c9.05-3.26,12.17-3.36,19.89-0.53c7.72,2.83,47.94,18.84,55.55,21.63
					c7.61,2.78,7.91,5.08,0.09,9.13L1493.97,498.08z"/>
				<path class="st21" d="M1493.97,488.75c-7.81,4.06-48.29,20.71-56.96,25.2c-8.67,4.49-13.39,4.44-20.21,1.2
					c-6.82-3.24-49.79-20.65-57.57-24.36c-3.88-1.86-5.92-3.42-5.92-4.9V471.1c0,0,56.08-12.17,65.13-15.46s12.17-3.36,19.89-0.53
					c7.72,2.83,53.77,11.12,61.38,13.91v14.59C1499.71,485.13,1497.96,486.65,1493.97,488.75z"/>
				<path class="st22" d="M1493.97,473.94c-7.81,4.08-48.29,20.71-56.96,25.2s-13.39,4.46-20.21,1.2
					c-6.82-3.26-49.79-20.65-57.57-24.36s-7.93-6.25-0.3-9.24c7.62-2.98,50.46-19.78,59.52-23.04c9.05-3.26,12.17-3.36,19.89-0.55
					c7.72,2.82,47.94,18.92,55.55,21.63c7.61,2.71,7.91,5.08,0.09,9.13V473.94z"/>
				<path class="st21" d="M1493.97,463.72c-7.81,4.08-48.29,20.73-56.96,25.22s-13.39,4.44-20.21,1.19
					c-6.82-3.26-49.79-20.65-57.57-24.36c-3.88-1.84-5.92-3.41-5.92-4.89v-14.81c0,0,56.08-12.17,65.13-15.45s12.17-3.36,19.89-0.55
					s53.77,11.14,61.38,13.92v14.59C1499.71,460.11,1497.96,461.63,1493.97,463.72z"/>
				<path class="st22" d="M1493.97,448.92c-7.81,4.02-48.29,20.76-56.96,25.2s-13.39,4.44-20.21,1.2s-49.79-20.67-57.57-24.36
					s-7.93-6.27-0.3-9.25c7.62-2.98,50.46-19.78,59.52-23.04c9.05-3.26,12.17-3.36,19.89-0.53c7.72,2.83,47.94,18.84,55.55,21.63
					c7.61,2.78,7.91,5.08,0.09,9.13L1493.97,448.92z"/>
			</g>
		</g>
		<polygon class="st23" points="1428.8,427.89 1438.47,424.73 1435.85,430.98 1445.68,434.66 1433,435.99 1430.16,442.82 
			1425.58,435.2 1410.92,433.87 1421.86,429.93 1418.58,423.87 1428.8,427.89 1428.8,427.89 		"/>
		<polygon class="st23" points="1429.41,467.82 1405.73,457.99 1439.65,452.79 1429.41,467.82 1429.41,467.82 		"/>
		<path class="st23" d="M1396.59,438.47c10.01,0,18.12,3.15,18.12,7.03c0,3.88-8.14,7.03-18.12,7.03c-9.98,0-18.14-3.15-18.14-7.03
			C1378.45,441.62,1386.57,438.47,1396.59,438.47z"/>
		<polygon class="st24" points="1460.69,436.54 1480.76,444.46 1460.7,452.39 1460.69,436.54 1460.69,436.54 		"/>
		<polygon class="st25" points="1460.69,436.54 1460.7,452.39 1458.53,453.25 1438.47,445.32 1460.69,436.54 1460.69,436.54 		"/>
	</g>
	<g>
		<g>
			<defs>
				<rect id="SVGID_00000148650908863990804880000015661587974967776655_" x="1597.31" y="416.13" width="146.42" height="125.48"/>
			</defs>
			<clipPath id="SVGID_00000093149232464544702130000007709361649267160742_">
				<use xlink:href="#SVGID_00000148650908863990804880000015661587974967776655_"  style="overflow:visible;"/>
			</clipPath>
			<g style="clip-path:url(#SVGID_00000093149232464544702130000007709361649267160742_);">
				<path class="st21" d="M1737.97,512.87c-7.81,4.08-48.29,20.73-56.96,25.29s-13.39,4.44-20.21,1.19
					c-6.82-3.26-49.79-20.73-57.57-24.44c-3.88-1.84-5.92-3.41-5.92-4.89v-14.81c0,0,56.08-12.17,65.13-15.45s12.17-3.36,19.89-0.55
					s53.77,11.14,61.38,13.92v14.58c0,1.52-1.75,3.04-5.74,5.13V512.87z"/>
				<path class="st22" d="M1737.97,498.08c-7.81,4.06-48.29,20.71-56.96,25.2s-13.39,4.44-20.21,1.2s-49.79-20.67-57.57-24.36
					s-7.93-6.27-0.3-9.25c7.62-2.98,50.46-19.78,59.52-23.04c9.05-3.26,12.17-3.36,19.89-0.53c7.72,2.83,47.94,18.84,55.55,21.63
					c7.61,2.78,7.91,5.08,0.09,9.13L1737.97,498.08z"/>
				<path class="st21" d="M1737.97,488.75c-7.81,4.06-48.29,20.71-56.96,25.2c-8.67,4.49-13.39,4.44-20.21,1.2
					c-6.82-3.24-49.79-20.65-57.57-24.36c-3.88-1.86-5.92-3.42-5.92-4.9V471.1c0,0,56.08-12.17,65.13-15.46s12.17-3.36,19.89-0.53
					c7.72,2.83,53.77,11.12,61.38,13.91v14.59C1743.71,485.13,1741.96,486.65,1737.97,488.75z"/>
				<path class="st22" d="M1737.97,473.94c-7.81,4.08-48.29,20.71-56.96,25.2s-13.39,4.46-20.21,1.2
					c-6.82-3.26-49.79-20.65-57.57-24.36s-7.93-6.25-0.3-9.24c7.62-2.98,50.46-19.78,59.52-23.04c9.05-3.26,12.17-3.36,19.89-0.55
					c7.72,2.82,47.94,18.92,55.55,21.63c7.61,2.71,7.91,5.08,0.09,9.13V473.94z"/>
				<path class="st21" d="M1737.97,463.72c-7.81,4.08-48.29,20.73-56.96,25.22s-13.39,4.44-20.21,1.19
					c-6.82-3.26-49.79-20.65-57.57-24.36c-3.88-1.84-5.92-3.41-5.92-4.89v-14.81c0,0,56.08-12.17,65.13-15.45s12.17-3.36,19.89-0.55
					s53.77,11.14,61.38,13.92v14.59C1743.71,460.11,1741.96,461.63,1737.97,463.72z"/>
				<path class="st22" d="M1737.97,448.92c-7.81,4.02-48.29,20.76-56.96,25.2s-13.39,4.44-20.21,1.2s-49.79-20.67-57.57-24.36
					s-7.93-6.27-0.3-9.25c7.62-2.98,50.46-19.78,59.52-23.04c9.05-3.26,12.17-3.36,19.89-0.53c7.72,2.83,47.94,18.84,55.55,21.63
					c7.61,2.78,7.91,5.08,0.09,9.13L1737.97,448.92z"/>
			</g>
		</g>
		<polygon class="st23" points="1672.8,427.89 1682.47,424.73 1679.85,430.98 1689.68,434.66 1677,435.99 1674.16,442.82 
			1669.58,435.2 1654.92,433.87 1665.86,429.93 1662.58,423.87 1672.8,427.89 1672.8,427.89 		"/>
		<polygon class="st23" points="1673.41,467.82 1649.73,457.99 1683.65,452.79 1673.41,467.82 1673.41,467.82 		"/>
		<path class="st23" d="M1640.59,438.47c10.01,0,18.12,3.15,18.12,7.03c0,3.88-8.14,7.03-18.12,7.03c-9.98,0-18.14-3.15-18.14-7.03
			C1622.45,441.62,1630.57,438.47,1640.59,438.47z"/>
		<polygon class="st24" points="1704.69,436.54 1724.76,444.46 1704.7,452.39 1704.69,436.54 1704.69,436.54 		"/>
		<polygon class="st25" points="1704.69,436.54 1704.7,452.39 1702.53,453.25 1682.47,445.32 1704.69,436.54 1704.69,436.54 		"/>
	</g>
	<g>
		<path class="st16" d="M1409.81,569.18h7.31c4.93,0,9,2.16,9,7.52v0.14c0,5.47-4.1,7.6-9,7.6h-4.18v10.47h-3.13V569.18z
			 M1417.33,581.96c3.67,0,5.65-1.8,5.65-5.11v-0.14c0-3.64-2.16-5-5.65-5h-4.39v10.26H1417.33z"/>
		<path class="st16" d="M1428.17,594.19l10.22-10.76c2.34-2.48,3.71-4.82,3.71-7.45c0-2.88-1.69-4.61-4.61-4.61
			c-2.99,0-4.93,1.69-5.44,5.72h-2.92c0.4-5.04,3.46-8.24,8.35-8.24c4.75,0,7.77,2.81,7.77,7.23c0,3.17-2.02,6.26-5.18,9.36
			l-7.09,6.91h12.42v2.56h-17.24V594.19z"/>
	</g>
	<g>
		<path class="st16" d="M1652.96,569.18h7.74c4.93,0,9,2.02,9,7.16v0.14c0,4.25-2.84,6.33-6.37,7.02l7.88,11.41h-3.49l-7.67-11.2
			h-3.96v11.2h-3.13V569.18z M1660.92,581.24c3.67,0,5.65-1.58,5.65-4.75v-0.14c0-3.49-2.16-4.64-5.65-4.64h-4.82v9.54H1660.92z"/>
		<path class="st16" d="M1673.02,594.19l10.22-10.76c2.34-2.48,3.71-4.82,3.71-7.45c0-2.88-1.69-4.61-4.61-4.61
			c-2.99,0-4.93,1.69-5.44,5.72h-2.92c0.4-5.04,3.46-8.24,8.35-8.24c4.75,0,7.77,2.81,7.77,7.23c0,3.17-2.02,6.26-5.18,9.36
			l-7.09,6.91h12.42v2.56h-17.24V594.19z"/>
	</g>
	<g>
		<g>
			<path class="st3" d="M1561.67,480.33H1520c-0.83,0-1.5-0.67-1.5-1.5s0.67-1.5,1.5-1.5h41.67c0.83,0,1.5,0.67,1.5,1.5
				S1562.49,480.33,1561.67,480.33z"/>
		</g>
		<g>
			<g>
				<polygon class="st3" points="1558.6,489.3 1576.74,478.83 1558.6,468.36 				"/>
			</g>
		</g>
	</g>
	<g>
		<g>
			<defs>
				<rect id="SVGID_00000079480801947454688140000000486283022164815277_" x="1353.31" y="764.13" width="146.42" height="125.48"/>
			</defs>
			<clipPath id="SVGID_00000081635674089000583610000000562706864114140325_">
				<use xlink:href="#SVGID_00000079480801947454688140000000486283022164815277_"  style="overflow:visible;"/>
			</clipPath>
			<g style="clip-path:url(#SVGID_00000081635674089000583610000000562706864114140325_);">
				<path class="st21" d="M1493.97,860.87c-7.81,4.08-48.29,20.73-56.96,25.29s-13.39,4.44-20.21,1.19
					c-6.82-3.26-49.79-20.73-57.57-24.44c-3.88-1.84-5.92-3.41-5.92-4.89v-14.81c0,0,56.08-12.17,65.13-15.45
					c9.05-3.27,12.17-3.36,19.89-0.55c7.72,2.82,53.77,11.14,61.38,13.92v14.58c0,1.52-1.75,3.04-5.74,5.13V860.87z"/>
				<path class="st22" d="M1493.97,846.08c-7.81,4.06-48.29,20.71-56.96,25.2s-13.39,4.44-20.21,1.2s-49.79-20.67-57.57-24.36
					s-7.93-6.27-0.3-9.25c7.62-2.98,50.46-19.78,59.52-23.04c9.05-3.26,12.17-3.36,19.89-0.53s47.94,18.84,55.55,21.63
					c7.61,2.78,7.91,5.08,0.09,9.13L1493.97,846.08z"/>
				<path class="st21" d="M1493.97,836.75c-7.81,4.06-48.29,20.71-56.96,25.2c-8.67,4.49-13.39,4.44-20.21,1.2
					c-6.82-3.24-49.79-20.65-57.57-24.36c-3.88-1.86-5.92-3.42-5.92-4.9V819.1c0,0,56.08-12.17,65.13-15.46s12.17-3.36,19.89-0.53
					c7.72,2.83,53.77,11.12,61.38,13.91v14.59C1499.71,833.13,1497.96,834.65,1493.97,836.75z"/>
				<path class="st22" d="M1493.97,821.94c-7.81,4.08-48.29,20.71-56.96,25.2c-8.67,4.49-13.39,4.46-20.21,1.2
					s-49.79-20.65-57.57-24.36c-7.78-3.71-7.93-6.25-0.3-9.24c7.62-2.98,50.46-19.78,59.52-23.04c9.05-3.26,12.17-3.36,19.89-0.55
					c7.72,2.82,47.94,18.92,55.55,21.63c7.61,2.71,7.91,5.08,0.09,9.13V821.94z"/>
				<path class="st21" d="M1493.97,811.72c-7.81,4.08-48.29,20.73-56.96,25.22s-13.39,4.44-20.21,1.19s-49.79-20.65-57.57-24.36
					c-3.88-1.84-5.92-3.41-5.92-4.89v-14.81c0,0,56.08-12.17,65.13-15.45s12.17-3.36,19.89-0.55c7.72,2.82,53.77,11.14,61.38,13.92
					v14.59C1499.71,808.11,1497.96,809.63,1493.97,811.72z"/>
				<path class="st22" d="M1493.97,796.92c-7.81,4.02-48.29,20.76-56.96,25.2c-8.67,4.44-13.39,4.44-20.21,1.2
					s-49.79-20.67-57.57-24.36s-7.93-6.27-0.3-9.25s50.46-19.78,59.52-23.04s12.17-3.36,19.89-0.53s47.94,18.84,55.55,21.63
					c7.61,2.78,7.91,5.08,0.09,9.13L1493.97,796.92z"/>
			</g>
		</g>
		<polygon class="st23" points="1428.8,775.89 1438.47,772.73 1435.85,778.98 1445.68,782.66 1433,783.99 1430.16,790.82 
			1425.58,783.2 1410.92,781.87 1421.86,777.93 1418.58,771.87 1428.8,775.89 1428.8,775.89 		"/>
		<polygon class="st23" points="1429.41,815.82 1405.73,805.99 1439.65,800.79 1429.41,815.82 1429.41,815.82 		"/>
		<path class="st23" d="M1396.59,786.47c10.01,0,18.12,3.15,18.12,7.03s-8.14,7.03-18.12,7.03c-9.98,0-18.14-3.15-18.14-7.03
			S1386.57,786.47,1396.59,786.47z"/>
		<polygon class="st24" points="1460.69,784.54 1480.76,792.46 1460.7,800.39 1460.69,784.54 1460.69,784.54 		"/>
		<polygon class="st25" points="1460.69,784.54 1460.7,800.39 1458.53,801.25 1438.47,793.32 1460.69,784.54 1460.69,784.54 		"/>
	</g>
	<g>
		<g>
			<defs>
				<rect id="SVGID_00000045604133570384126820000000715757970896517796_" x="1597.31" y="764.13" width="146.42" height="125.48"/>
			</defs>
			<clipPath id="SVGID_00000089535324519543412790000015554622359361521062_">
				<use xlink:href="#SVGID_00000045604133570384126820000000715757970896517796_"  style="overflow:visible;"/>
			</clipPath>
			<g style="clip-path:url(#SVGID_00000089535324519543412790000015554622359361521062_);">
				<path class="st21" d="M1737.97,860.87c-7.81,4.08-48.29,20.73-56.96,25.29s-13.39,4.44-20.21,1.19
					c-6.82-3.26-49.79-20.73-57.57-24.44c-3.88-1.84-5.92-3.41-5.92-4.89v-14.81c0,0,56.08-12.17,65.13-15.45
					c9.05-3.27,12.17-3.36,19.89-0.55c7.72,2.82,53.77,11.14,61.38,13.92v14.58c0,1.52-1.75,3.04-5.74,5.13V860.87z"/>
				<path class="st22" d="M1737.97,846.08c-7.81,4.06-48.29,20.71-56.96,25.2s-13.39,4.44-20.21,1.2s-49.79-20.67-57.57-24.36
					s-7.93-6.27-0.3-9.25c7.62-2.98,50.46-19.78,59.52-23.04c9.05-3.26,12.17-3.36,19.89-0.53s47.94,18.84,55.55,21.63
					c7.61,2.78,7.91,5.08,0.09,9.13L1737.97,846.08z"/>
				<path class="st21" d="M1737.97,836.75c-7.81,4.06-48.29,20.71-56.96,25.2c-8.67,4.49-13.39,4.44-20.21,1.2
					c-6.82-3.24-49.79-20.65-57.57-24.36c-3.88-1.86-5.92-3.42-5.92-4.9V819.1c0,0,56.08-12.17,65.13-15.46s12.17-3.36,19.89-0.53
					c7.72,2.83,53.77,11.12,61.38,13.91v14.59C1743.71,833.13,1741.96,834.65,1737.97,836.75z"/>
				<path class="st22" d="M1737.97,821.94c-7.81,4.08-48.29,20.71-56.96,25.2c-8.67,4.49-13.39,4.46-20.21,1.2
					s-49.79-20.65-57.57-24.36c-7.78-3.71-7.93-6.25-0.3-9.24c7.62-2.98,50.46-19.78,59.52-23.04c9.05-3.26,12.17-3.36,19.89-0.55
					c7.72,2.82,47.94,18.92,55.55,21.63c7.61,2.71,7.91,5.08,0.09,9.13V821.94z"/>
				<path class="st21" d="M1737.97,811.72c-7.81,4.08-48.29,20.73-56.96,25.22s-13.39,4.44-20.21,1.19s-49.79-20.65-57.57-24.36
					c-3.88-1.84-5.92-3.41-5.92-4.89v-14.81c0,0,56.08-12.17,65.13-15.45s12.17-3.36,19.89-0.55c7.72,2.82,53.77,11.14,61.38,13.92
					v14.59C1743.71,808.11,1741.96,809.63,1737.97,811.72z"/>
				<path class="st22" d="M1737.97,796.92c-7.81,4.02-48.29,20.76-56.96,25.2c-8.67,4.44-13.39,4.44-20.21,1.2
					s-49.79-20.67-57.57-24.36s-7.93-6.27-0.3-9.25s50.46-19.78,59.52-23.04s12.17-3.36,19.89-0.53s47.94,18.84,55.55,21.63
					c7.61,2.78,7.91,5.08,0.09,9.13L1737.97,796.92z"/>
			</g>
		</g>
		<polygon class="st23" points="1672.8,775.89 1682.47,772.73 1679.85,778.98 1689.68,782.66 1677,783.99 1674.16,790.82 
			1669.58,783.2 1654.92,781.87 1665.86,777.93 1662.58,771.87 1672.8,775.89 1672.8,775.89 		"/>
		<polygon class="st23" points="1673.41,815.82 1649.73,805.99 1683.65,800.79 1673.41,815.82 1673.41,815.82 		"/>
		<path class="st23" d="M1640.59,786.47c10.01,0,18.12,3.15,18.12,7.03s-8.14,7.03-18.12,7.03c-9.98,0-18.14-3.15-18.14-7.03
			S1630.57,786.47,1640.59,786.47z"/>
		<polygon class="st24" points="1704.69,784.54 1724.76,792.46 1704.7,800.39 1704.69,784.54 1704.69,784.54 		"/>
		<polygon class="st25" points="1704.69,784.54 1704.7,800.39 1702.53,801.25 1682.47,793.32 1704.69,784.54 1704.69,784.54 		"/>
	</g>
	<g>
		<path class="st16" d="M1409.02,917.18h7.31c4.93,0,9,2.16,9,7.52v0.14c0,5.47-4.1,7.6-9,7.6h-4.18v10.47h-3.13V917.18z
			 M1416.54,929.96c3.67,0,5.65-1.8,5.65-5.11v-0.14c0-3.64-2.16-5-5.65-5h-4.39v10.26H1416.54z"/>
		<path class="st16" d="M1429.72,924.09h2.99v2.99c0.86-1.76,2.95-3.31,6.05-3.31c3.89,0,6.62,2.12,6.62,7.59v11.55h-2.99v-11.77
			c0-3.31-1.4-4.79-4.43-4.79c-2.77,0-5.26,1.76-5.26,5.15v11.41h-2.99V924.09z"/>
	</g>
	<g>
		<path class="st16" d="M1652.17,917.18h7.74c4.93,0,9,2.02,9,7.16v0.14c0,4.25-2.84,6.33-6.37,7.02l7.88,11.41h-3.49l-7.67-11.2
			h-3.96v11.2h-3.13V917.18z M1660.13,929.24c3.67,0,5.65-1.58,5.65-4.75v-0.14c0-3.49-2.16-4.64-5.65-4.64h-4.82v9.54H1660.13z"/>
		<path class="st16" d="M1674.56,924.09h2.99v2.99c0.86-1.76,2.95-3.31,6.05-3.31c3.89,0,6.62,2.12,6.62,7.59v11.55h-2.99v-11.77
			c0-3.31-1.4-4.79-4.43-4.79c-2.77,0-5.26,1.76-5.26,5.15v11.41h-2.99V924.09z"/>
	</g>
	<g>
		<g>
			<path class="st3" d="M1561.67,828.33H1520c-0.83,0-1.5-0.67-1.5-1.5s0.67-1.5,1.5-1.5h41.67c0.83,0,1.5,0.67,1.5,1.5
				S1562.49,828.33,1561.67,828.33z"/>
		</g>
		<g>
			<g>
				<polygon class="st3" points="1558.6,837.3 1576.74,826.83 1558.6,816.36 				"/>
			</g>
		</g>
	</g>
	<g>
		<path class="st3" d="M960.87,742.25l-3-0.05l0.05-12.25l2.95,0.05V742.25z M960.82,720.05h-2.9v-0.1h2.9V720.05z M960.87,710.05
			l-3-0.05l0.05-20.05l2.95,0.05V710.05z M960.82,680.05h-2.9v-0.1h2.9V680.05z M960.87,670.05l-3-0.05l0.05-20.05l2.95,0.05V670.05
			z M960.82,640.05h-2.9v-0.1h2.9V640.05z M960.82,630.05h-2.9v-0.1h2.9V630.05z"/>
	</g>
	<g>
		<path class="st3" d="M1550.87,742.25l-3-0.05l0.05-12.25l2.95,0.05V742.25z M1550.82,720.05h-2.9v-0.1h2.9V720.05z
			 M1550.87,710.05l-3-0.05l0.05-20.05l2.95,0.05V710.05z M1550.82,680.05h-2.9v-0.1h2.9V680.05z M1550.87,670.05l-3-0.05
			l0.05-20.05l2.95,0.05V670.05z M1550.82,640.05h-2.9v-0.1h2.9V640.05z M1550.82,630.05h-2.9v-0.1h2.9V630.05z"/>
	</g>
</g>
</svg>
